# Blender 4.0.2
# www.blender.org
mtllib SM_Kitchen_Island_Cover_5.mtl
o SM_Kitchen_Island_Cover_5
v -0.009556 0.338889 0.448841
v -0.009890 0.339197 0.448446
v -0.009889 0.338889 0.448507
v -0.009557 0.339382 0.448742
v -0.009001 0.339444 0.448841
v -0.009557 0.339679 0.448446
v -0.009002 0.339777 0.448507
v -0.009557 0.339777 0.447952
v -0.009890 0.339382 0.448260
v -0.009890 0.339444 0.447952
v 0.009491 0.339197 0.448841
v 0.009887 0.338889 0.448507
v 0.009786 0.339382 0.448507
v 0.009553 0.338889 0.448841
v 0.009551 0.339777 0.447952
v 0.009490 0.339679 0.448507
v 0.009885 0.339444 0.447952
v 0.008997 0.339444 0.448841
v 0.009305 0.339382 0.448841
v 0.008996 0.339777 0.448507
v -0.009890 0.339197 -0.448445
v -0.009556 0.338889 -0.448840
v -0.009889 0.338889 -0.448507
v -0.009557 0.339382 -0.448742
v -0.009001 0.339444 -0.448840
v -0.009557 0.339679 -0.448445
v -0.009002 0.339777 -0.448507
v -0.009558 0.339777 -0.447952
v -0.009890 0.339382 -0.448260
v -0.009890 0.339444 -0.447952
v 0.009886 0.338889 -0.448507
v 0.009490 0.339197 -0.448840
v 0.009786 0.339382 -0.448507
v 0.009553 0.338889 -0.448840
v 0.009885 0.339444 -0.447952
v 0.009551 0.339777 -0.447952
v 0.009489 0.339679 -0.448507
v 0.008996 0.339777 -0.448507
v 0.009305 0.339382 -0.448840
v 0.008997 0.339444 -0.448840
v -0.009556 -0.338889 0.448841
v -0.009890 -0.339198 0.448446
v -0.009557 -0.339383 0.448742
v -0.009889 -0.338889 0.448507
v -0.009001 -0.339445 0.448841
v -0.009557 -0.339679 0.448446
v -0.009002 -0.339778 0.448507
v -0.009890 -0.339383 0.448260
v -0.009890 -0.339445 0.447952
v -0.009557 -0.339778 0.447952
v 0.009490 -0.339198 0.448841
v 0.009886 -0.338889 0.448507
v 0.009553 -0.338889 0.448841
v 0.009786 -0.339383 0.448507
v 0.009489 -0.339679 0.448507
v 0.009551 -0.339778 0.447952
v 0.009885 -0.339445 0.447952
v 0.008997 -0.339445 0.448841
v 0.008996 -0.339778 0.448507
v 0.009305 -0.339383 0.448841
v 0.008371 -0.339445 0.448841
v 0.008370 -0.339778 0.448507
v -0.009556 -0.338889 -0.448840
v -0.009890 -0.339198 -0.448445
v -0.009889 -0.338889 -0.448507
v -0.009557 -0.339383 -0.448742
v -0.009557 -0.339679 -0.448445
v -0.009002 -0.339445 -0.448840
v -0.009002 -0.339778 -0.448507
v -0.009558 -0.339778 -0.447952
v -0.009890 -0.339383 -0.448260
v -0.009890 -0.339445 -0.447952
v 0.009551 -0.339778 -0.447951
v 0.009786 -0.339383 -0.448507
v 0.009884 -0.339445 -0.447951
v 0.009489 -0.339679 -0.448507
v 0.008996 -0.339778 -0.448507
v 0.009305 -0.339383 -0.448840
v 0.008996 -0.339445 -0.448840
v -0.010000 0.338889 0.447952
v -0.009999 0.337993 0.447952
v -0.009888 0.337993 0.448507
v -0.010000 0.338889 0.447285
v -0.009890 0.339444 0.447285
v -0.009557 0.339777 0.447285
v -0.009890 0.339444 -0.447284
v -0.009558 0.339777 -0.447284
v -0.010000 0.338889 -0.447284
v -0.010000 0.338889 -0.447952
v -0.009999 0.337993 -0.447284
v -0.009999 0.337993 -0.447952
v -0.009888 0.337993 -0.448507
v -0.009555 0.337993 -0.448840
v -0.009999 -0.337994 -0.447284
v -0.009888 -0.337994 -0.448507
v -0.009555 -0.337994 -0.448840
v -0.009999 -0.337994 -0.447952
v -0.010001 -0.338889 -0.447952
v -0.010001 -0.338889 -0.447284
v -0.009890 -0.339445 -0.447284
v -0.009558 -0.339778 -0.447284
v -0.009999 -0.337994 0.447284
v -0.009890 -0.339445 0.447284
v -0.009557 -0.339778 0.447284
v -0.010000 -0.338889 0.447284
v -0.010000 -0.338889 0.447952
v -0.009999 -0.337994 0.447952
v -0.009888 -0.337994 0.448507
v -0.009999 0.337993 0.447285
v 0.008998 0.338889 0.448952
v 0.008372 0.338889 0.448952
v 0.008999 0.337993 0.448952
v 0.008371 0.339444 0.448841
v 0.008370 0.339777 0.448507
v 0.008373 0.337993 0.448952
v -0.008375 0.339444 0.448841
v -0.008376 0.339777 0.448507
v -0.008374 0.338889 0.448952
v -0.008373 0.337993 0.448952
v -0.009000 0.338889 0.448952
v -0.008999 0.337993 0.448952
v -0.009554 0.337993 0.448841
v -0.009555 -0.337994 0.448841
v -0.008999 -0.337994 0.448952
v -0.009000 -0.338889 0.448952
v -0.008376 -0.339778 0.448507
v -0.008375 -0.339445 0.448841
v -0.008375 -0.338889 0.448952
v 0.008372 -0.338889 0.448952
v -0.008373 -0.337994 0.448952
v 0.008373 -0.337994 0.448952
v 0.008997 -0.338889 0.448952
v 0.008999 -0.337994 0.448952
v 0.009555 -0.337994 0.448841
v 0.009555 0.337993 0.448841
v 0.009888 -0.337994 0.448507
v 0.009888 0.337993 0.448507
v 0.008998 0.338889 -0.448951
v 0.008372 0.338889 -0.448951
v 0.008371 0.339444 -0.448840
v 0.008999 0.337993 -0.448951
v 0.009555 0.337993 -0.448840
v 0.009554 -0.337994 -0.448840
v 0.008373 0.337993 -0.448951
v 0.008999 -0.337994 -0.448951
v 0.009553 -0.338889 -0.448840
v -0.008373 0.337993 -0.448951
v 0.008997 -0.338889 -0.448951
v 0.009490 -0.339198 -0.448840
v 0.008373 -0.337994 -0.448951
v 0.008371 -0.338889 -0.448951
v 0.008370 -0.339445 -0.448840
v -0.008373 -0.337994 -0.448951
v -0.008375 -0.338889 -0.448951
v -0.008376 -0.339445 -0.448840
v -0.008999 0.337993 -0.448951
v -0.009001 -0.338889 -0.448951
v -0.008999 -0.337994 -0.448951
v -0.009000 0.338889 -0.448951
v -0.008376 0.339444 -0.448840
v -0.008375 0.338889 -0.448951
v 0.009886 -0.338889 -0.448507
v 0.009888 -0.337994 -0.448507
v 0.009997 -0.338889 0.447952
v 0.009999 -0.337994 0.447952
v 0.009997 -0.338889 0.447285
v 0.009885 -0.339445 0.447285
v 0.009884 -0.339445 -0.447284
v 0.009999 -0.337994 0.447285
v 0.009997 -0.338889 -0.447284
v 0.009999 0.337993 0.447952
v 0.009997 -0.338889 -0.447951
v 0.009999 -0.337994 -0.447284
v 0.009999 -0.337994 -0.447951
v 0.009999 0.337993 0.447284
v 0.009999 0.337993 -0.447284
v 0.009999 0.337993 -0.447952
v 0.009998 0.338889 0.447952
v 0.009998 0.338889 0.447284
v 0.009885 0.339444 0.447284
v 0.009997 0.338889 -0.447284
v 0.009885 0.339444 -0.447284
v 0.009997 0.338889 -0.447952
v 0.009888 0.337993 -0.448507
v 0.009551 0.339777 0.447284
v 0.008996 0.339888 0.447952
v 0.009551 0.339777 -0.447284
v 0.008996 0.339888 0.447284
v 0.008370 0.339888 0.447952
v 0.008370 0.339888 0.447284
v 0.008996 0.339888 -0.447284
v 0.008996 0.339888 -0.447952
v 0.008370 0.339777 -0.448507
v 0.008370 0.339888 -0.447284
v 0.008370 0.339888 -0.447952
v -0.008376 0.339777 -0.448507
v -0.008376 0.339888 -0.447952
v -0.009002 0.339888 -0.447952
v -0.009002 0.339888 -0.447284
v -0.008376 0.339888 -0.447284
v -0.009002 0.339888 0.447285
v -0.008376 0.339888 0.447285
v -0.009002 0.339888 0.447952
v -0.008376 0.339888 0.447952
v 0.009551 -0.339778 0.447285
v 0.008996 -0.339889 0.447952
v 0.009551 -0.339778 -0.447284
v 0.008996 -0.339889 0.447285
v 0.008370 -0.339889 0.447952
v 0.008370 -0.339889 0.447285
v 0.008996 -0.339889 -0.447284
v -0.008376 -0.339889 0.447952
v 0.008370 -0.339889 -0.447284
v -0.009002 -0.339889 0.447952
v -0.008376 -0.339889 0.447284
v -0.009002 -0.339889 0.447284
v -0.008376 -0.339889 -0.447284
v -0.009002 -0.339889 -0.447284
v 0.008370 -0.339889 -0.447951
v -0.009002 -0.339889 -0.447952
v -0.008376 -0.339889 -0.447952
v -0.008376 -0.339778 -0.448507
v 0.008370 -0.339778 -0.448507
v 0.008996 -0.339889 -0.447951
vn -0.5278 0.0552 0.8476
vn -0.8354 0.2447 0.4922
vn -0.9268 0.0146 0.3752
vn -0.3964 0.3465 0.8502
vn -0.0962 0.5311 0.8418
vn -0.3970 0.8126 0.4266
vn -0.0756 0.9175 0.3904
vn -0.5260 0.8478 0.0677
vn -0.8561 0.4844 0.1804
vn -0.9255 0.3781 0.0205
vn 0.4855 0.1816 0.8552
vn 0.8474 0.0579 0.5277
vn 0.8122 0.4280 0.3964
vn 0.3753 0.0169 0.9268
vn 0.5314 0.8420 0.0929
vn 0.3473 0.8500 0.3961
vn 0.9175 0.3911 0.0725
vn 0.0215 0.3806 0.9245
vn 0.2462 0.4924 0.8348
vn 0.0703 0.8481 0.5252
vn -0.8354 0.2447 -0.4922
vn -0.5279 0.0552 -0.8475
vn -0.9268 0.0146 -0.3752
vn -0.3964 0.3466 -0.8501
vn -0.0963 0.5312 -0.8418
vn -0.3970 0.8126 -0.4266
vn -0.0756 0.9176 -0.3904
vn -0.5260 0.8478 -0.0678
vn -0.8560 0.4844 -0.1804
vn -0.9255 0.3781 -0.0205
vn 0.8781 0.0731 -0.4728
vn 0.4855 0.1816 -0.8552
vn 0.8122 0.4280 -0.3964
vn 0.4472 0.0140 -0.8943
vn 0.9175 0.3911 -0.0725
vn 0.5313 0.8421 -0.0929
vn 0.3473 0.8500 -0.3961
vn 0.0703 0.8482 -0.5251
vn 0.2462 0.4925 -0.8348
vn 0.0215 0.3804 -0.9246
vn -0.5277 -0.0553 0.8476
vn -0.8557 -0.1790 0.4856
vn -0.4313 -0.3645 0.8253
vn -0.9269 -0.0147 0.3751
vn -0.0963 -0.5311 0.8418
vn -0.3656 -0.8324 0.4165
vn -0.0757 -0.9176 0.3903
vn -0.8356 -0.4910 0.2462
vn -0.9256 -0.3781 0.0205
vn -0.5260 -0.8478 0.0678
vn 0.4854 -0.1816 0.8552
vn 0.8781 -0.0731 0.4728
vn 0.4471 -0.0140 0.8944
vn 0.8122 -0.4280 0.3964
vn 0.3473 -0.8500 0.3961
vn 0.5314 -0.8420 0.0929
vn 0.9175 -0.3912 0.0725
vn 0.0215 -0.3803 0.9246
vn 0.0703 -0.8481 0.5251
vn 0.2462 -0.4923 0.8349
vn -0.0000 -0.3652 0.9309
vn -0.0000 -0.8477 0.5305
vn -0.5278 -0.0552 -0.8476
vn -0.8354 -0.2448 -0.4921
vn -0.9268 -0.0146 -0.3752
vn -0.3965 -0.3466 -0.8501
vn -0.3971 -0.8126 -0.4266
vn -0.0963 -0.5312 -0.8418
vn -0.0756 -0.9175 -0.3904
vn -0.5260 -0.8478 -0.0678
vn -0.8560 -0.4844 -0.1805
vn -0.9255 -0.3781 -0.0205
vn 0.5313 -0.8421 -0.0929
vn 0.8122 -0.4280 -0.3964
vn 0.9175 -0.3911 -0.0725
vn 0.3472 -0.8500 -0.3961
vn 0.0703 -0.8481 -0.5251
vn 0.2462 -0.4924 -0.8348
vn 0.0215 -0.3804 -0.9246
vn -0.9944 0.0673 0.0819
vn -0.9983 -0.0000 0.0587
vn -0.8944 -0.0000 0.4472
vn -0.9990 0.0456 -0.0000
vn -0.9338 0.3578 -0.0000
vn -0.4475 0.8943 -0.0000
vn -0.8443 0.5359 -0.0000
vn -0.4474 0.8943 -0.0000
vn -0.9941 0.1084 -0.0000
vn -0.9944 0.0674 -0.0819
vn -1.0000 -0.0001 -0.0000
vn -0.9983 -0.0000 -0.0587
vn -0.9333 -0.0008 -0.3592
vn -0.5367 -0.0004 -0.8437
vn -1.0000 -0.0000 -0.0000
vn -0.8437 -0.0000 -0.5368
vn -0.3589 -0.0000 -0.9334
vn -0.9923 -0.0000 -0.1239
vn -0.9944 -0.0674 -0.0819
vn -0.9990 -0.0457 -0.0000
vn -0.9338 -0.3577 -0.0000
vn -0.5372 -0.8435 -0.0000
vn -0.8443 -0.5358 -0.0000
vn -0.3592 -0.9333 -0.0000
vn -0.9941 -0.1084 -0.0000
vn -0.9944 -0.0673 0.0819
vn -0.9923 -0.0000 0.1239
vn -0.8944 -0.0000 0.4474
vn 0.0655 0.0534 0.9964
vn -0.0000 0.0493 0.9988
vn 0.1269 -0.0000 0.9919
vn 0.0002 0.3654 0.9309
vn 0.0001 0.8477 0.5305
vn -0.0000 -0.0000 1.0000
vn -0.0000 0.5305 0.8477
vn -0.0000 0.9309 0.3652
vn -0.0000 0.1076 0.9942
vn -0.1103 0.0892 0.9899
vn -0.0614 -0.0001 0.9981
vn -0.3590 -0.0000 0.9333
vn -0.5366 -0.0000 0.8439
vn -0.1269 -0.0000 0.9919
vn -0.1102 -0.0891 0.9899
vn -0.0000 -0.9309 0.3652
vn -0.0000 -0.5304 0.8478
vn -0.0000 -0.1074 0.9942
vn -0.0000 -0.0492 0.9988
vn 0.0653 -0.0533 0.9964
vn 0.0614 -0.0000 0.9981
vn 0.3591 -0.0004 0.9333
vn 0.5369 -0.0000 0.8436
vn 0.8438 -0.0000 0.5367
vn 0.9334 -0.0000 0.3590
vn 0.0653 0.0533 -0.9964
vn -0.0000 0.0492 -0.9988
vn -0.0000 0.3652 -0.9309
vn 0.1268 -0.0000 -0.9919
vn 0.4473 -0.0000 -0.8944
vn -0.0000 -0.0000 -1.0000
vn 0.0615 -0.0000 -0.9981
vn 0.3752 -0.0169 -0.9268
vn 0.0654 -0.0533 -0.9964
vn 0.4855 -0.1816 -0.8552
vn -0.0000 -0.0493 -0.9988
vn 0.0002 -0.3652 -0.9309
vn -0.0000 -0.1075 -0.9942
vn -0.0000 -0.5304 -0.8477
vn -0.0935 -0.0000 -0.9956
vn -0.1101 -0.0891 -0.9899
vn -0.1102 0.0891 -0.9899
vn -0.0000 0.5305 -0.8477
vn -0.0000 0.1074 -0.9942
vn 0.8475 -0.0579 -0.5277
vn 0.9333 -0.0000 -0.3590
vn 0.9931 -0.0623 0.0997
vn 0.9923 -0.0000 0.1240
vn 0.9937 -0.1124 -0.0000
vn 0.8935 -0.4491 -0.0000
vn 0.8935 -0.4490 -0.0000
vn 1.0000 -0.0001 -0.0000
vn 0.9988 -0.0493 -0.0000
vn 0.9983 -0.0000 0.0587
vn 0.9931 -0.0623 -0.0997
vn 1.0000 -0.0000 -0.0000
vn 0.9983 -0.0000 -0.0587
vn 1.0000 0.0001 -0.0000
vn 0.9923 -0.0000 -0.1239
vn 0.9931 0.0623 0.0997
vn 0.9988 0.0493 -0.0000
vn 0.9325 0.3613 -0.0000
vn 0.9937 0.1124 -0.0000
vn 0.8428 0.5382 -0.0000
vn 0.9931 0.0623 -0.0997
vn 0.8437 -0.0000 -0.5367
vn 0.5366 0.8439 -0.0000
vn 0.0920 0.9918 0.0888
vn 0.3591 0.9333 -0.0000
vn 0.1269 0.9919 -0.0000
vn -0.0000 0.9959 0.0905
vn -0.0000 1.0000 -0.0000
vn 0.0614 0.9981 -0.0000
vn 0.0920 0.9918 -0.0888
vn -0.0000 0.8478 -0.5304
vn -0.0000 0.9924 -0.1231
vn -0.0000 0.9309 -0.3652
vn -0.0000 0.9982 -0.0601
vn -0.1253 0.9882 -0.0880
vn -0.1268 0.9919 -0.0000
vn -0.0614 0.9981 -0.0000
vn -0.1253 0.9882 0.0880
vn 0.5366 -0.8438 -0.0000
vn 0.0920 -0.9918 0.0888
vn 0.3591 -0.9333 -0.0000
vn 0.1269 -0.9919 -0.0000
vn -0.0000 -0.9924 0.1231
vn -0.0000 -1.0000 -0.0000
vn 0.0614 -0.9981 -0.0000
vn -0.0000 -0.9982 0.0601
vn -0.1252 -0.9882 0.0880
vn -0.0614 -0.9981 -0.0000
vn -0.1269 -0.9919 -0.0000
vn -0.0000 -0.9959 -0.0905
vn -0.1253 -0.9882 -0.0880
vn -0.0000 -0.9309 -0.3653
vn -0.0000 -0.8478 -0.5304
vn 0.0920 -0.9918 -0.0888
s 1
usemtl M_Kitchen_Fronts
f 1//1 2//2 3//3
f 2//2 1//1 4//4
f 5//5 6//6 4//4
f 6//6 5//5 7//7
f 6//6 8//8 9//9
f 9//9 8//8 10//10
f 11//11 12//12 13//13
f 12//12 11//11 14//14
f 15//15 16//16 13//13
f 13//13 17//17 15//15
f 18//18 19//19 20//20
f 19//19 16//16 20//20
f 21//21 22//22 23//23
f 22//22 21//21 24//24
f 25//25 26//26 27//27
f 26//26 25//25 24//24
f 28//28 26//26 29//29
f 28//28 29//29 30//30
f 31//31 32//32 33//33
f 32//32 31//31 34//34
f 35//35 33//33 36//36
f 36//36 33//33 37//37
f 38//38 37//37 39//39
f 38//38 39//39 40//40
f 41//41 42//42 43//43
f 42//42 41//41 44//44
f 45//45 46//46 47//47
f 46//46 45//45 43//43
f 48//48 49//49 50//50
f 48//48 50//50 46//46
f 51//51 52//52 53//53
f 52//52 51//51 54//54
f 55//55 56//56 54//54
f 54//54 56//56 57//57
f 58//58 59//59 60//60
f 60//60 59//59 55//55
f 61//61 59//59 58//58
f 59//59 61//61 62//62
f 63//63 64//64 65//65
f 64//64 63//63 66//66
f 67//67 68//68 69//69
f 68//68 67//67 66//66
f 70//70 71//71 67//67
f 71//71 70//70 72//72
f 73//73 74//74 75//75
f 74//74 73//73 76//76
f 76//76 77//77 78//78
f 78//78 77//77 79//79
f 2//2 4//4 6//6
f 9//9 2//2 6//6
f 80//80 2//2 9//9
f 80//80 3//3 2//2
f 80//80 9//9 10//10
f 3//3 80//80 81//81
f 82//82 3//3 81//81
f 10//10 83//83 80//80
f 80//80 83//83 81//81
f 83//83 10//10 84//84
f 8//8 84//84 10//10
f 84//84 8//8 85//85
f 85//85 86//86 84//84
f 86//86 85//85 87//87
f 87//87 28//28 86//86
f 86//86 28//28 30//30
f 88//88 84//84 86//86
f 86//86 30//30 88//88
f 84//84 88//88 83//83
f 88//88 30//30 89//89
f 89//89 30//30 29//29
f 90//90 83//83 88//88
f 89//89 29//29 21//21
f 26//26 21//21 29//29
f 24//24 21//21 26//26
f 89//89 21//21 23//23
f 88//88 89//89 91//91
f 89//89 23//23 91//91
f 90//90 88//88 91//91
f 91//91 23//23 92//92
f 92//92 23//23 22//22
f 92//92 22//22 93//93
f 94//94 90//90 91//91
f 95//95 92//92 93//93
f 95//95 93//93 96//96
f 63//63 95//95 96//96
f 95//95 63//63 65//65
f 97//97 91//91 92//92
f 97//97 92//92 95//95
f 65//65 97//97 95//95
f 94//94 91//91 97//97
f 97//97 65//65 98//98
f 98//98 65//65 64//64
f 67//67 64//64 66//66
f 64//64 67//67 71//71
f 98//98 64//64 71//71
f 98//98 71//71 72//72
f 99//99 97//97 98//98
f 99//99 98//98 72//72
f 99//99 94//94 97//97
f 100//100 99//99 72//72
f 100//100 72//72 70//70
f 70//70 101//101 100//100
f 99//99 102//94 94//94
f 101//101 103//102 100//100
f 103//102 101//101 104//103
f 50//50 103//102 104//103
f 49//49 103//102 50//50
f 100//100 105//104 99//99
f 105//104 100//100 103//102
f 49//49 105//104 103//102
f 102//94 99//99 105//104
f 49//49 106//105 105//104
f 106//105 49//49 48//48
f 43//43 48//48 46//46
f 48//48 43//43 42//42
f 106//105 48//48 42//42
f 106//105 42//42 44//44
f 107//106 105//104 106//105
f 44//44 107//106 106//105
f 105//104 107//106 102//94
f 44//44 108//107 107//106
f 82//82 107//106 108//107
f 107//106 82//82 81//81
f 107//106 81//81 102//94
f 109//94 102//94 81//81
f 109//94 94//94 102//94
f 81//81 83//83 109//94
f 94//94 109//94 90//90
f 83//83 90//90 109//94
f 19//19 13//13 16//16
f 13//13 19//19 11//11
f 110//108 11//11 19//19
f 110//108 19//19 18//18
f 110//108 14//14 11//11
f 18//18 111//109 110//108
f 110//108 112//110 14//14
f 111//109 18//18 113//111
f 20//20 113//111 18//18
f 113//111 20//20 114//112
f 115//113 110//108 111//109
f 110//108 115//113 112//110
f 114//112 116//114 113//111
f 116//114 114//112 117//115
f 113//111 118//116 111//109
f 118//116 113//111 116//114
f 5//5 117//115 7//7
f 117//115 5//5 116//114
f 119//113 111//109 118//116
f 111//109 119//113 115//113
f 120//117 116//114 5//5
f 116//114 120//117 118//116
f 4//4 120//117 5//5
f 120//117 4//4 1//1
f 118//116 121//118 119//113
f 121//118 118//116 120//117
f 3//3 82//82 1//1
f 1//1 122//119 120//117
f 1//1 82//82 122//119
f 120//117 122//119 121//118
f 123//120 122//119 82//82
f 82//82 108//107 123//120
f 124//121 121//118 122//119
f 122//119 123//120 124//121
f 108//107 44//44 41//41
f 41//41 123//120 108//107
f 123//120 41//41 125//122
f 124//121 123//120 125//122
f 43//43 125//122 41//41
f 125//122 43//43 45//45
f 126//123 45//45 47//47
f 45//45 126//123 127//124
f 127//124 125//122 45//45
f 62//62 127//124 126//123
f 127//124 62//62 61//61
f 125//122 127//124 128//125
f 61//61 128//125 127//124
f 128//125 124//121 125//122
f 128//125 61//61 129//126
f 58//58 129//126 61//61
f 124//121 128//125 130//113
f 129//126 130//113 128//125
f 130//113 121//118 124//121
f 121//118 130//113 119//113
f 130//113 115//113 119//113
f 130//113 129//126 131//113
f 115//113 130//113 131//113
f 129//126 58//58 132//127
f 132//127 131//113 129//126
f 132//127 58//58 60//60
f 115//113 131//113 133//128
f 131//113 132//127 133//128
f 133//128 112//110 115//113
f 54//54 60//60 55//55
f 60//60 54//54 51//51
f 132//127 60//60 51//51
f 132//127 51//51 53//53
f 133//128 132//127 53//53
f 134//129 133//128 53//53
f 134//129 112//110 133//128
f 112//110 134//129 135//130
f 14//14 112//110 135//130
f 136//131 135//130 134//129
f 135//130 12//12 14//14
f 135//130 136//131 137//132
f 12//12 135//130 137//132
f 33//33 39//39 37//37
f 39//39 33//33 32//32
f 138//133 39//39 32//32
f 138//133 40//40 39//39
f 138//133 32//32 34//34
f 139//134 40//40 138//133
f 40//40 139//134 140//135
f 141//136 138//133 34//34
f 142//137 141//136 34//34
f 143//137 141//136 142//137
f 144//138 138//133 141//136
f 138//133 144//138 139//134
f 141//136 143//137 145//139
f 145//139 144//138 141//136
f 146//140 145//139 143//137
f 147//138 139//134 144//138
f 148//141 145//139 146//140
f 148//141 146//140 149//142
f 144//138 145//139 150//138
f 148//141 150//138 145//139
f 150//138 147//138 144//138
f 148//141 149//142 78//78
f 74//74 78//78 149//142
f 78//78 74//74 76//76
f 148//141 78//78 79//79
f 79//79 151//143 148//141
f 150//138 148//141 151//143
f 151//143 79//79 152//144
f 151//143 153//138 150//138
f 153//138 147//138 150//138
f 152//144 154//145 151//143
f 153//138 151//143 154//145
f 154//145 152//144 155//146
f 153//138 156//147 147//138
f 155//146 157//148 154//145
f 157//148 155//146 68//68
f 66//66 157//148 68//68
f 157//148 66//66 63//63
f 63//63 96//96 157//148
f 154//145 158//147 153//138
f 158//147 154//145 157//148
f 157//148 96//96 158//147
f 156//147 153//138 158//147
f 96//96 156//147 158//147
f 156//147 96//96 93//93
f 156//147 93//93 159//149
f 93//93 22//22 159//149
f 24//24 159//149 22//22
f 159//149 24//24 25//25
f 160//150 159//149 25//25
f 161//151 156//147 159//149
f 159//149 160//150 161//151
f 156//147 161//151 147//138
f 140//135 161//151 160//150
f 139//134 147//138 161//151
f 161//151 140//135 139//134
f 149//142 162//152 74//74
f 162//152 149//142 146//140
f 143//137 162//152 146//140
f 162//152 143//137 163//153
f 53//53 136//131 134//129
f 136//131 53//53 52//52
f 52//52 164//154 136//131
f 54//54 164//154 52//52
f 164//154 54//54 57//57
f 136//131 164//154 165//155
f 165//155 137//132 136//131
f 57//57 166//156 164//154
f 166//156 57//57 167//157
f 167//157 168//158 166//156
f 164//154 169//159 165//155
f 169//159 164//154 166//156
f 166//156 168//158 170//160
f 170//160 169//159 166//156
f 170//160 168//158 75//75
f 171//161 165//155 169//159
f 137//132 165//155 171//161
f 170//160 75//75 172//162
f 74//74 172//162 75//75
f 172//162 74//74 162//152
f 172//162 162//152 163//153
f 173//163 170//160 172//162
f 169//159 170//160 173//163
f 174//164 172//162 163//153
f 173//163 172//162 174//164
f 175//159 169//159 173//163
f 171//161 169//159 175//159
f 174//164 176//165 173//163
f 175//159 173//163 176//165
f 177//166 174//164 163//153
f 176//165 174//164 177//166
f 171//161 175//159 178//167
f 178//167 137//132 171//161
f 137//132 178//167 12//12
f 178//167 13//13 12//12
f 13//13 178//167 17//17
f 178//167 175//159 179//168
f 178//167 179//168 17//17
f 175//159 176//165 179//168
f 17//17 179//168 180//169
f 181//170 180//169 179//168
f 179//168 176//165 181//170
f 180//169 181//170 182//171
f 182//171 181//170 35//35
f 181//170 176//165 183//172
f 181//170 183//172 35//35
f 176//165 177//166 183//172
f 183//172 33//33 35//35
f 33//33 183//172 31//31
f 183//172 177//166 184//173
f 183//172 184//173 31//31
f 177//166 163//153 184//173
f 31//31 184//173 34//34
f 143//137 184//173 163//153
f 142//137 34//34 184//173
f 184//173 143//137 142//137
f 180//169 15//15 17//17
f 15//15 180//169 185//174
f 182//171 185//174 180//169
f 182//171 35//35 36//36
f 15//15 185//174 186//175
f 16//16 15//15 186//175
f 20//20 16//16 186//175
f 186//175 114//112 20//20
f 185//174 182//171 187//176
f 36//36 187//176 182//171
f 186//175 185//174 188//177
f 187//176 188//177 185//174
f 114//112 186//175 189//178
f 189//178 117//115 114//112
f 186//175 188//177 190//179
f 189//178 186//175 190//179
f 188//177 187//176 191//180
f 191//180 190//179 188//177
f 187//176 36//36 192//181
f 191//180 187//176 192//181
f 192//181 36//36 37//37
f 192//181 37//37 38//38
f 140//135 38//38 40//40
f 38//38 140//135 193//182
f 193//182 192//181 38//38
f 160//150 193//182 140//135
f 192//181 194//179 191//180
f 190//179 191//180 194//179
f 192//181 193//182 195//183
f 194//179 192//181 195//183
f 193//182 160//150 196//184
f 196//184 195//183 193//182
f 25//25 196//184 160//150
f 196//184 25//25 27//27
f 195//183 196//184 197//185
f 27//27 197//185 196//184
f 197//185 194//179 195//183
f 197//185 27//27 198//186
f 26//26 198//186 27//27
f 198//186 26//26 28//28
f 87//87 198//186 28//28
f 199//187 198//186 87//87
f 199//187 197//185 198//186
f 85//85 199//187 87//87
f 194//179 197//185 200//179
f 199//187 200//179 197//185
f 190//179 194//179 200//179
f 201//188 199//187 85//85
f 201//188 200//179 199//187
f 200//179 202//179 190//179
f 202//179 200//179 201//188
f 190//179 202//179 189//178
f 85//85 203//189 201//188
f 203//189 85//85 8//8
f 6//6 203//189 8//8
f 7//7 203//189 6//6
f 201//188 204//178 202//179
f 204//178 201//188 203//189
f 204//178 189//178 202//179
f 7//7 204//178 203//189
f 117//115 189//178 204//178
f 204//178 7//7 117//115
f 56//56 167//157 57//57
f 167//157 56//56 205//190
f 205//190 168//158 167//157
f 168//158 73//73 75//75
f 206//191 205//190 56//56
f 55//55 206//191 56//56
f 59//59 206//191 55//55
f 62//62 206//191 59//59
f 168//158 205//190 207//192
f 207//192 73//73 168//158
f 205//190 206//191 208//193
f 208//193 207//192 205//190
f 206//191 62//62 209//194
f 126//123 209//194 62//62
f 206//191 210//195 208//193
f 206//191 209//194 210//195
f 207//192 208//193 211//196
f 210//195 211//196 208//193
f 209//194 126//123 212//197
f 212//197 210//195 209//194
f 47//47 212//197 126//123
f 211//196 210//195 213//195
f 212//197 47//47 214//198
f 47//47 46//46 214//198
f 46//46 50//50 214//198
f 214//198 50//50 104//103
f 210//195 212//197 215//195
f 215//195 213//195 210//195
f 214//198 216//199 212//197
f 212//197 216//199 215//195
f 214//198 104//103 216//199
f 216//199 217//195 215//195
f 213//195 215//195 217//195
f 104//103 218//200 216//199
f 217//195 216//199 218//200
f 218//200 104//103 101//101
f 217//195 219//201 213//195
f 218//200 101//101 220//202
f 101//101 70//70 220//202
f 220//202 70//70 67//67
f 220//202 67//67 69//69
f 217//195 218//200 221//201
f 218//200 220//202 221//201
f 69//69 221//201 220//202
f 219//201 217//195 221//201
f 221//201 69//69 222//203
f 222//203 219//201 221//201
f 68//68 222//203 69//69
f 222//203 68//68 155//146
f 155//146 223//204 222//203
f 219//201 222//203 223//204
f 223//204 155//146 152//144
f 77//77 152//144 79//79
f 152//144 77//77 223//204
f 223//204 224//205 219//201
f 224//205 223//204 77//77
f 224//205 213//195 219//201
f 76//76 224//205 77//77
f 213//195 224//205 211//196
f 224//205 76//76 73//73
f 207//192 211//196 224//205
f 207//192 224//205 73//73
