# Blender 4.0.2
# www.blender.org
mtllib SM_Kitchen_Island_Cover_4_1_0_0_874_1_0.mtl
o SM_Kitchen_Island_Cover_4_1_0_0_874_1_0
v -0.009556 0.296189 0.448841
v -0.009890 0.296458 0.448446
v -0.009889 0.296189 0.448507
v -0.009557 0.296620 0.448742
v -0.009001 0.296674 0.448841
v -0.009557 0.296879 0.448446
v -0.009002 0.296965 0.448507
v -0.009557 0.296965 0.447952
v -0.009890 0.296620 0.448260
v -0.009890 0.296674 0.447952
v 0.009491 0.296458 0.448841
v 0.009887 0.296189 0.448507
v 0.009786 0.296620 0.448507
v 0.009553 0.296189 0.448841
v 0.009551 0.296965 0.447952
v 0.009490 0.296879 0.448507
v 0.009885 0.296674 0.447952
v 0.008997 0.296674 0.448841
v 0.009305 0.296620 0.448841
v 0.008996 0.296965 0.448507
v -0.009890 0.296458 -0.448445
v -0.009556 0.296189 -0.448840
v -0.009889 0.296189 -0.448507
v -0.009557 0.296620 -0.448742
v -0.009001 0.296674 -0.448840
v -0.009557 0.296879 -0.448445
v -0.009002 0.296965 -0.448507
v -0.009558 0.296965 -0.447952
v -0.009890 0.296620 -0.448260
v -0.009890 0.296674 -0.447952
v 0.009886 0.296189 -0.448507
v 0.009490 0.296458 -0.448840
v 0.009786 0.296620 -0.448507
v 0.009553 0.296189 -0.448840
v 0.009885 0.296674 -0.447952
v 0.009551 0.296965 -0.447952
v 0.009489 0.296879 -0.448507
v 0.008996 0.296965 -0.448507
v 0.009305 0.296620 -0.448840
v 0.008997 0.296674 -0.448840
v -0.009556 -0.296189 0.448841
v -0.009890 -0.296459 0.448446
v -0.009557 -0.296621 0.448742
v -0.009889 -0.296189 0.448507
v -0.009001 -0.296675 0.448841
v -0.009557 -0.296880 0.448446
v -0.009002 -0.296966 0.448507
v -0.009890 -0.296621 0.448260
v -0.009890 -0.296675 0.447952
v -0.009557 -0.296966 0.447952
v 0.009490 -0.296459 0.448841
v 0.009886 -0.296189 0.448507
v 0.009553 -0.296189 0.448841
v 0.009786 -0.296621 0.448507
v 0.009489 -0.296880 0.448507
v 0.009551 -0.296966 0.447952
v 0.009885 -0.296675 0.447952
v 0.008997 -0.296675 0.448841
v 0.008996 -0.296966 0.448507
v 0.009305 -0.296621 0.448841
v 0.008371 -0.296675 0.448841
v 0.008370 -0.296966 0.448507
v -0.009556 -0.296189 -0.448840
v -0.009890 -0.296459 -0.448445
v -0.009889 -0.296189 -0.448507
v -0.009557 -0.296621 -0.448742
v -0.009557 -0.296880 -0.448445
v -0.009002 -0.296675 -0.448840
v -0.009002 -0.296966 -0.448507
v -0.009558 -0.296966 -0.447952
v -0.009890 -0.296621 -0.448260
v -0.009890 -0.296675 -0.447952
v 0.009551 -0.296966 -0.447951
v 0.009786 -0.296621 -0.448507
v 0.009884 -0.296675 -0.447951
v 0.009489 -0.296880 -0.448507
v 0.008996 -0.296966 -0.448507
v 0.009305 -0.296621 -0.448840
v 0.008996 -0.296675 -0.448840
v -0.010000 0.296189 0.447952
v -0.009999 0.295406 0.447952
v -0.009888 0.295406 0.448507
v -0.010000 0.296189 0.447285
v -0.009890 0.296674 0.447285
v -0.009557 0.296965 0.447285
v -0.009890 0.296674 -0.447284
v -0.009558 0.296965 -0.447284
v -0.010000 0.296189 -0.447284
v -0.010000 0.296189 -0.447952
v -0.009999 0.295406 -0.447284
v -0.009999 0.295406 -0.447952
v -0.009888 0.295406 -0.448507
v -0.009555 0.295406 -0.448840
v -0.009999 -0.295406 -0.447284
v -0.009888 -0.295406 -0.448507
v -0.009555 -0.295406 -0.448840
v -0.009999 -0.295406 -0.447952
v -0.010001 -0.296189 -0.447952
v -0.010001 -0.296189 -0.447284
v -0.009890 -0.296675 -0.447284
v -0.009558 -0.296966 -0.447284
v -0.009999 -0.295407 0.447284
v -0.009890 -0.296675 0.447284
v -0.009557 -0.296966 0.447284
v -0.010000 -0.296189 0.447284
v -0.010000 -0.296189 0.447952
v -0.009999 -0.295407 0.447952
v -0.009888 -0.295407 0.448507
v -0.009999 0.295406 0.447285
v 0.008998 0.296189 0.448952
v 0.008372 0.296189 0.448952
v 0.008999 0.295406 0.448952
v 0.008371 0.296674 0.448841
v 0.008370 0.296965 0.448507
v 0.008373 0.295406 0.448952
v -0.008375 0.296674 0.448841
v -0.008376 0.296965 0.448507
v -0.008374 0.296189 0.448952
v -0.008373 0.295406 0.448952
v -0.009000 0.296189 0.448952
v -0.008999 0.295406 0.448952
v -0.009554 0.295406 0.448841
v -0.009555 -0.295407 0.448841
v -0.008999 -0.295407 0.448952
v -0.009000 -0.296189 0.448952
v -0.008376 -0.296966 0.448507
v -0.008375 -0.296675 0.448841
v -0.008375 -0.296189 0.448952
v 0.008372 -0.296189 0.448952
v -0.008373 -0.295407 0.448952
v 0.008373 -0.295407 0.448952
v 0.008997 -0.296189 0.448952
v 0.008999 -0.295407 0.448952
v 0.009555 -0.295407 0.448841
v 0.009555 0.295406 0.448841
v 0.009888 -0.295407 0.448507
v 0.009888 0.295406 0.448507
v 0.008998 0.296189 -0.448951
v 0.008372 0.296189 -0.448951
v 0.008371 0.296674 -0.448840
v 0.008999 0.295406 -0.448951
v 0.009555 0.295406 -0.448840
v 0.009554 -0.295407 -0.448840
v 0.008373 0.295406 -0.448951
v 0.008999 -0.295407 -0.448951
v 0.009553 -0.296189 -0.448840
v -0.008373 0.295406 -0.448951
v 0.008997 -0.296189 -0.448951
v 0.009490 -0.296459 -0.448840
v 0.008373 -0.295407 -0.448951
v 0.008371 -0.296189 -0.448951
v 0.008370 -0.296675 -0.448840
v -0.008373 -0.295406 -0.448951
v -0.008375 -0.296189 -0.448951
v -0.008376 -0.296675 -0.448840
v -0.008999 0.295406 -0.448951
v -0.009001 -0.296189 -0.448951
v -0.008999 -0.295406 -0.448951
v -0.009000 0.296189 -0.448951
v -0.008376 0.296674 -0.448840
v -0.008375 0.296189 -0.448951
v 0.009886 -0.296189 -0.448507
v 0.009888 -0.295407 -0.448507
v 0.009997 -0.296189 0.447952
v 0.009999 -0.295407 0.447952
v 0.009997 -0.296189 0.447285
v 0.009885 -0.296675 0.447285
v 0.009884 -0.296675 -0.447284
v 0.009999 -0.295407 0.447285
v 0.009997 -0.296189 -0.447284
v 0.009999 0.295406 0.447952
v 0.009997 -0.296189 -0.447951
v 0.009999 -0.295407 -0.447284
v 0.009999 -0.295407 -0.447951
v 0.009999 0.295406 0.447284
v 0.009999 0.295406 -0.447284
v 0.009999 0.295406 -0.447952
v 0.009998 0.296189 0.447952
v 0.009998 0.296189 0.447284
v 0.009885 0.296674 0.447284
v 0.009997 0.296189 -0.447284
v 0.009885 0.296674 -0.447284
v 0.009997 0.296189 -0.447952
v 0.009888 0.295406 -0.448507
v 0.009551 0.296965 0.447284
v 0.008996 0.297063 0.447952
v 0.009551 0.296965 -0.447284
v 0.008996 0.297063 0.447284
v 0.008370 0.297063 0.447952
v 0.008370 0.297063 0.447284
v 0.008996 0.297063 -0.447284
v 0.008996 0.297063 -0.447952
v 0.008370 0.296965 -0.448507
v 0.008370 0.297063 -0.447284
v 0.008370 0.297063 -0.447952
v -0.008376 0.296965 -0.448507
v -0.008376 0.297063 -0.447952
v -0.009002 0.297063 -0.447952
v -0.009002 0.297063 -0.447284
v -0.008376 0.297063 -0.447284
v -0.009002 0.297063 0.447285
v -0.008376 0.297063 0.447285
v -0.009002 0.297063 0.447952
v -0.008376 0.297063 0.447952
v 0.009551 -0.296966 0.447285
v 0.008996 -0.297063 0.447952
v 0.009551 -0.296966 -0.447284
v 0.008996 -0.297063 0.447285
v 0.008370 -0.297063 0.447952
v 0.008370 -0.297063 0.447285
v 0.008996 -0.297063 -0.447284
v -0.008376 -0.297063 0.447952
v 0.008370 -0.297063 -0.447284
v -0.009002 -0.297063 0.447952
v -0.008376 -0.297063 0.447284
v -0.009002 -0.297063 0.447284
v -0.008376 -0.297063 -0.447284
v -0.009002 -0.297063 -0.447284
v 0.008370 -0.297063 -0.447951
v -0.009002 -0.297063 -0.447952
v -0.008376 -0.297063 -0.447952
v -0.008376 -0.296966 -0.448507
v 0.008370 -0.296966 -0.448507
v 0.008996 -0.297063 -0.447951
vn -0.5280 0.0482 0.8479
vn -0.8414 0.2154 0.4957
vn -0.9269 0.0128 0.3752
vn -0.4021 0.3072 0.8625
vn -0.0995 0.4805 0.8713
vn -0.4322 0.7731 0.4643
vn -0.0845 0.8959 0.4361
vn -0.5773 0.8131 0.0743
vn -0.8808 0.4356 0.1856
vn -0.9416 0.3362 0.0209
vn 0.4874 0.1594 0.8585
vn 0.8478 0.0506 0.5279
vn 0.8303 0.3824 0.4053
vn 0.3753 0.0148 0.9268
vn 0.5823 0.8066 0.1018
vn 0.3813 0.8157 0.4349
vn 0.9345 0.3482 0.0739
vn 0.0219 0.3385 0.9407
vn 0.2536 0.4432 0.8598
vn 0.0772 0.8135 0.5764
vn -0.8414 0.2154 -0.4957
vn -0.5281 0.0483 -0.8478
vn -0.9268 0.0128 -0.3753
vn -0.4022 0.3073 -0.8625
vn -0.0996 0.4806 -0.8713
vn -0.4322 0.7731 -0.4643
vn -0.0845 0.8959 -0.4361
vn -0.5773 0.8131 -0.0743
vn -0.8808 0.4356 -0.1857
vn -0.9416 0.3362 -0.0209
vn 0.8787 0.0639 -0.4731
vn 0.4874 0.1594 -0.8585
vn 0.8303 0.3824 -0.4053
vn 0.4472 0.0122 -0.8944
vn 0.9345 0.3482 -0.0739
vn 0.5823 0.8066 -0.1018
vn 0.3813 0.8158 -0.4349
vn 0.0772 0.8136 -0.5763
vn 0.2536 0.4433 -0.8597
vn 0.0219 0.3383 -0.9408
vn -0.5279 -0.0483 0.8479
vn -0.8589 -0.1571 0.4874
vn -0.4382 -0.3237 0.8386
vn -0.9269 -0.0128 0.3752
vn -0.0997 -0.4804 0.8714
vn -0.3998 -0.7955 0.4555
vn -0.0845 -0.8959 0.4361
vn -0.8605 -0.4419 0.2535
vn -0.9416 -0.3362 0.0209
vn -0.5773 -0.8131 0.0743
vn 0.4873 -0.1594 0.8586
vn 0.8787 -0.0639 0.4731
vn 0.4471 -0.0122 0.8944
vn 0.8304 -0.3824 0.4052
vn 0.3813 -0.8157 0.4349
vn 0.5823 -0.8066 0.1018
vn 0.9345 -0.3482 0.0738
vn 0.0219 -0.3382 0.9408
vn 0.0772 -0.8135 0.5763
vn 0.2536 -0.4432 0.8598
vn -0.0000 -0.3243 0.9460
vn -0.0000 -0.8131 0.5822
vn -0.5280 -0.0483 -0.8479
vn -0.8413 -0.2155 -0.4957
vn -0.9268 -0.0128 -0.3752
vn -0.4022 -0.3073 -0.8624
vn -0.4322 -0.7730 -0.4643
vn -0.0997 -0.4805 -0.8713
vn -0.0845 -0.8959 -0.4361
vn -0.5773 -0.8131 -0.0743
vn -0.8808 -0.4356 -0.1857
vn -0.9416 -0.3362 -0.0209
vn 0.5823 -0.8066 -0.1018
vn 0.8304 -0.3824 -0.4052
vn 0.9345 -0.3482 -0.0739
vn 0.3813 -0.8158 -0.4349
vn 0.0772 -0.8136 -0.5763
vn 0.2536 -0.4433 -0.8598
vn 0.0219 -0.3384 -0.9408
vn -0.9949 0.0589 0.0819
vn -0.9983 -0.0000 0.0587
vn -0.8944 -0.0000 0.4472
vn -0.9992 0.0399 -0.0000
vn -0.9482 0.3175 -0.0000
vn -0.4968 0.8679 -0.0000
vn -0.8745 0.4851 -0.0000
vn -0.9955 0.0949 -0.0000
vn -0.9949 0.0590 -0.0820
vn -1.0000 -0.0000 -0.0000
vn -0.9983 -0.0000 -0.0587
vn -0.9332 -0.0009 -0.3592
vn -0.5367 -0.0005 -0.8438
vn -0.8437 -0.0000 -0.5368
vn -0.3589 -0.0000 -0.9334
vn -0.9923 -0.0000 -0.1239
vn -0.9949 -0.0589 -0.0820
vn -0.9992 -0.0399 -0.0000
vn -0.9483 -0.3175 -0.0000
vn -0.5889 -0.8082 -0.0000
vn -0.8745 -0.4851 -0.0000
vn -0.4030 -0.9152 -0.0000
vn -0.9955 -0.0949 -0.0000
vn -0.9949 -0.0589 0.0819
vn -0.9923 -0.0000 0.1239
vn -0.8944 -0.0000 0.4474
vn 0.0655 0.0467 0.9968
vn -0.0000 0.0431 0.9991
vn 0.1269 -0.0000 0.9919
vn 0.0004 0.3245 0.9459
vn 0.0002 0.8131 0.5822
vn -0.0000 -0.0000 1.0000
vn -0.0000 0.4798 0.8774
vn -0.0000 0.9123 0.4095
vn -0.0000 0.0942 0.9956
vn -0.1104 0.0780 0.9908
vn -0.0614 -0.0001 0.9981
vn -0.3590 -0.0000 0.9333
vn -0.5365 -0.0000 0.8439
vn -0.1269 -0.0000 0.9919
vn -0.1103 -0.0779 0.9908
vn -0.0000 -0.9123 0.4095
vn -0.0000 -0.4797 0.8774
vn -0.0000 -0.0940 0.9956
vn -0.0000 -0.0430 0.9991
vn 0.0653 -0.0466 0.9968
vn 0.0614 -0.0000 0.9981
vn 0.3591 -0.0005 0.9333
vn 0.5369 -0.0000 0.8436
vn 0.8438 -0.0000 0.5367
vn 0.9334 -0.0000 0.3590
vn 0.0653 0.0466 -0.9968
vn -0.0000 0.0430 -0.9991
vn -0.0000 0.3243 -0.9459
vn 0.1268 -0.0000 -0.9919
vn 0.4473 -0.0000 -0.8944
vn -0.0000 -0.0000 -1.0000
vn 0.0614 -0.0000 -0.9981
vn 0.3752 -0.0148 -0.9268
vn 0.0654 -0.0467 -0.9968
vn 0.4874 -0.1594 -0.8585
vn -0.0000 -0.0431 -0.9991
vn 0.0004 -0.3243 -0.9460
vn -0.0000 -0.0940 -0.9956
vn 0.0001 -0.4798 -0.8774
vn -0.0935 -0.0000 -0.9956
vn -0.1103 -0.0779 -0.9908
vn -0.1103 0.0779 -0.9908
vn -0.0000 0.4799 -0.8773
vn -0.0000 0.0940 -0.9956
vn 0.8478 -0.0506 -0.5279
vn 0.9333 -0.0000 -0.3590
vn 0.9935 -0.0545 0.0997
vn 0.9923 -0.0000 0.1239
vn 0.9951 -0.0984 -0.0000
vn 0.9156 -0.4022 -0.0000
vn 1.0000 -0.0000 -0.0000
vn 0.9991 -0.0431 -0.0000
vn 0.9983 -0.0000 0.0587
vn 0.9935 -0.0545 -0.0997
vn 1.0000 0.0001 -0.0000
vn 0.9983 -0.0000 -0.0587
vn 0.9923 -0.0000 -0.1239
vn 0.9935 0.0545 0.0997
vn 0.9991 0.0431 -0.0000
vn 0.9472 0.3208 -0.0000
vn 0.9951 0.0984 -0.0000
vn 0.8732 0.4874 -0.0000
vn 0.9935 0.0545 -0.0997
vn 0.8438 -0.0000 -0.5367
vn 0.5883 0.8086 -0.0000
vn 0.1050 0.9893 0.1013
vn 0.4029 0.9153 -0.0000
vn 0.1448 0.9895 -0.0000
vn -0.0000 0.9946 0.1034
vn -0.0000 1.0000 -0.0000
vn 0.0702 0.9975 -0.0000
vn 0.1050 0.9893 -0.1013
vn -0.0000 0.8131 -0.5821
vn -0.0000 0.9901 -0.1406
vn -0.0000 0.9123 -0.4095
vn -0.0000 0.9976 -0.0688
vn -0.1428 0.9847 -0.1003
vn -0.1448 0.9895 -0.0000
vn -0.0701 0.9975 -0.0000
vn -0.1428 0.9847 0.1003
vn 0.5883 -0.8086 -0.0000
vn 0.1050 -0.9893 0.1013
vn 0.4029 -0.9152 -0.0000
vn 0.1449 -0.9894 -0.0000
vn -0.0000 -0.9901 0.1405
vn -0.0000 -1.0000 -0.0000
vn 0.0702 -0.9975 -0.0000
vn -0.0000 -0.9976 0.0688
vn -0.1428 -0.9847 0.1003
vn -0.0701 -0.9975 -0.0000
vn -0.1448 -0.9895 -0.0000
vn -0.0000 -0.9946 -0.1034
vn -0.1428 -0.9846 -0.1004
vn -0.0000 -0.9123 -0.4095
vn -0.0000 -0.8131 -0.5821
vn 0.1050 -0.9893 -0.1013
s 1
usemtl M_Kitchen_Fronts
f 1//1 2//2 3//3
f 2//2 1//1 4//4
f 5//5 6//6 4//4
f 6//6 5//5 7//7
f 6//6 8//8 9//9
f 9//9 8//8 10//10
f 11//11 12//12 13//13
f 12//12 11//11 14//14
f 15//15 16//16 13//13
f 13//13 17//17 15//15
f 18//18 19//19 20//20
f 19//19 16//16 20//20
f 21//21 22//22 23//23
f 22//22 21//21 24//24
f 25//25 26//26 27//27
f 26//26 25//25 24//24
f 28//28 26//26 29//29
f 28//28 29//29 30//30
f 31//31 32//32 33//33
f 32//32 31//31 34//34
f 35//35 33//33 36//36
f 36//36 33//33 37//37
f 38//38 37//37 39//39
f 38//38 39//39 40//40
f 41//41 42//42 43//43
f 42//42 41//41 44//44
f 45//45 46//46 47//47
f 46//46 45//45 43//43
f 48//48 49//49 50//50
f 48//48 50//50 46//46
f 51//51 52//52 53//53
f 52//52 51//51 54//54
f 55//55 56//56 54//54
f 54//54 56//56 57//57
f 58//58 59//59 60//60
f 60//60 59//59 55//55
f 61//61 59//59 58//58
f 59//59 61//61 62//62
f 63//63 64//64 65//65
f 64//64 63//63 66//66
f 67//67 68//68 69//69
f 68//68 67//67 66//66
f 70//70 71//71 67//67
f 71//71 70//70 72//72
f 73//73 74//74 75//75
f 74//74 73//73 76//76
f 76//76 77//77 78//78
f 78//78 77//77 79//79
f 2//2 4//4 6//6
f 9//9 2//2 6//6
f 80//80 2//2 9//9
f 80//80 3//3 2//2
f 80//80 9//9 10//10
f 3//3 80//80 81//81
f 82//82 3//3 81//81
f 10//10 83//83 80//80
f 80//80 83//83 81//81
f 83//83 10//10 84//84
f 8//8 84//84 10//10
f 84//84 8//8 85//85
f 85//85 86//86 84//84
f 86//86 85//85 87//85
f 87//85 28//28 86//86
f 86//86 28//28 30//30
f 88//87 84//84 86//86
f 86//86 30//30 88//87
f 84//84 88//87 83//83
f 88//87 30//30 89//88
f 89//88 30//30 29//29
f 90//89 83//83 88//87
f 89//88 29//29 21//21
f 26//26 21//21 29//29
f 24//24 21//21 26//26
f 89//88 21//21 23//23
f 88//87 89//88 91//90
f 89//88 23//23 91//90
f 90//89 88//87 91//90
f 91//90 23//23 92//91
f 92//91 23//23 22//22
f 92//91 22//22 93//92
f 94//89 90//89 91//90
f 95//93 92//91 93//92
f 95//93 93//92 96//94
f 63//63 95//93 96//94
f 95//93 63//63 65//65
f 97//95 91//90 92//91
f 97//95 92//91 95//93
f 65//65 97//95 95//93
f 94//89 91//90 97//95
f 97//95 65//65 98//96
f 98//96 65//65 64//64
f 67//67 64//64 66//66
f 64//64 67//67 71//71
f 98//96 64//64 71//71
f 98//96 71//71 72//72
f 99//97 97//95 98//96
f 99//97 98//96 72//72
f 99//97 94//89 97//95
f 100//98 99//97 72//72
f 100//98 72//72 70//70
f 70//70 101//99 100//98
f 99//97 102//89 94//89
f 101//99 103//100 100//98
f 103//100 101//99 104//101
f 50//50 103//100 104//101
f 49//49 103//100 50//50
f 100//98 105//102 99//97
f 105//102 100//98 103//100
f 49//49 105//102 103//100
f 102//89 99//97 105//102
f 49//49 106//103 105//102
f 106//103 49//49 48//48
f 43//43 48//48 46//46
f 48//48 43//43 42//42
f 106//103 48//48 42//42
f 106//103 42//42 44//44
f 107//104 105//102 106//103
f 44//44 107//104 106//103
f 105//102 107//104 102//89
f 44//44 108//105 107//104
f 82//82 107//104 108//105
f 107//104 82//82 81//81
f 107//104 81//81 102//89
f 109//89 102//89 81//81
f 109//89 94//89 102//89
f 81//81 83//83 109//89
f 94//89 109//89 90//89
f 83//83 90//89 109//89
f 19//19 13//13 16//16
f 13//13 19//19 11//11
f 110//106 11//11 19//19
f 110//106 19//19 18//18
f 110//106 14//14 11//11
f 18//18 111//107 110//106
f 110//106 112//108 14//14
f 111//107 18//18 113//109
f 20//20 113//109 18//18
f 113//109 20//20 114//110
f 115//111 110//106 111//107
f 110//106 115//111 112//108
f 114//110 116//112 113//109
f 116//112 114//110 117//113
f 113//109 118//114 111//107
f 118//114 113//109 116//112
f 5//5 117//113 7//7
f 117//113 5//5 116//112
f 119//111 111//107 118//114
f 111//107 119//111 115//111
f 120//115 116//112 5//5
f 116//112 120//115 118//114
f 4//4 120//115 5//5
f 120//115 4//4 1//1
f 118//114 121//116 119//111
f 121//116 118//114 120//115
f 3//3 82//82 1//1
f 1//1 122//117 120//115
f 1//1 82//82 122//117
f 120//115 122//117 121//116
f 123//118 122//117 82//82
f 82//82 108//105 123//118
f 124//119 121//116 122//117
f 122//117 123//118 124//119
f 108//105 44//44 41//41
f 41//41 123//118 108//105
f 123//118 41//41 125//120
f 124//119 123//118 125//120
f 43//43 125//120 41//41
f 125//120 43//43 45//45
f 126//121 45//45 47//47
f 45//45 126//121 127//122
f 127//122 125//120 45//45
f 62//62 127//122 126//121
f 127//122 62//62 61//61
f 125//120 127//122 128//123
f 61//61 128//123 127//122
f 128//123 124//119 125//120
f 128//123 61//61 129//124
f 58//58 129//124 61//61
f 124//119 128//123 130//111
f 129//124 130//111 128//123
f 130//111 121//116 124//119
f 121//116 130//111 119//111
f 130//111 115//111 119//111
f 130//111 129//124 131//111
f 115//111 130//111 131//111
f 129//124 58//58 132//125
f 132//125 131//111 129//124
f 132//125 58//58 60//60
f 115//111 131//111 133//126
f 131//111 132//125 133//126
f 133//126 112//108 115//111
f 54//54 60//60 55//55
f 60//60 54//54 51//51
f 132//125 60//60 51//51
f 132//125 51//51 53//53
f 133//126 132//125 53//53
f 134//127 133//126 53//53
f 134//127 112//108 133//126
f 112//108 134//127 135//128
f 14//14 112//108 135//128
f 136//129 135//128 134//127
f 135//128 12//12 14//14
f 135//128 136//129 137//130
f 12//12 135//128 137//130
f 33//33 39//39 37//37
f 39//39 33//33 32//32
f 138//131 39//39 32//32
f 138//131 40//40 39//39
f 138//131 32//32 34//34
f 139//132 40//40 138//131
f 40//40 139//132 140//133
f 141//134 138//131 34//34
f 142//135 141//134 34//34
f 143//135 141//134 142//135
f 144//136 138//131 141//134
f 138//131 144//136 139//132
f 141//134 143//135 145//137
f 145//137 144//136 141//134
f 146//138 145//137 143//135
f 147//136 139//132 144//136
f 148//139 145//137 146//138
f 148//139 146//138 149//140
f 144//136 145//137 150//136
f 148//139 150//136 145//137
f 150//136 147//136 144//136
f 148//139 149//140 78//78
f 74//74 78//78 149//140
f 78//78 74//74 76//76
f 148//139 78//78 79//79
f 79//79 151//141 148//139
f 150//136 148//139 151//141
f 151//141 79//79 152//142
f 151//141 153//136 150//136
f 153//136 147//136 150//136
f 152//142 154//143 151//141
f 153//136 151//141 154//143
f 154//143 152//142 155//144
f 153//136 156//145 147//136
f 155//144 157//146 154//143
f 157//146 155//144 68//68
f 66//66 157//146 68//68
f 157//146 66//66 63//63
f 63//63 96//94 157//146
f 154//143 158//145 153//136
f 158//145 154//143 157//146
f 157//146 96//94 158//145
f 156//145 153//136 158//145
f 96//94 156//145 158//145
f 156//145 96//94 93//92
f 156//145 93//92 159//147
f 93//92 22//22 159//147
f 24//24 159//147 22//22
f 159//147 24//24 25//25
f 160//148 159//147 25//25
f 161//149 156//145 159//147
f 159//147 160//148 161//149
f 156//145 161//149 147//136
f 140//133 161//149 160//148
f 139//132 147//136 161//149
f 161//149 140//133 139//132
f 149//140 162//150 74//74
f 162//150 149//140 146//138
f 143//135 162//150 146//138
f 162//150 143//135 163//151
f 53//53 136//129 134//127
f 136//129 53//53 52//52
f 52//52 164//152 136//129
f 54//54 164//152 52//52
f 164//152 54//54 57//57
f 136//129 164//152 165//153
f 165//153 137//130 136//129
f 57//57 166//154 164//152
f 166//154 57//57 167//155
f 167//155 168//155 166//154
f 164//152 169//156 165//153
f 169//156 164//152 166//154
f 166//154 168//155 170//157
f 170//157 169//156 166//154
f 170//157 168//155 75//75
f 171//158 165//153 169//156
f 137//130 165//153 171//158
f 170//157 75//75 172//159
f 74//74 172//159 75//75
f 172//159 74//74 162//150
f 172//159 162//150 163//151
f 173//160 170//157 172//159
f 169//156 170//157 173//160
f 174//161 172//159 163//151
f 173//160 172//159 174//161
f 175//156 169//156 173//160
f 171//158 169//156 175//156
f 174//161 176//156 173//160
f 175//156 173//160 176//156
f 177//162 174//161 163//151
f 176//156 174//161 177//162
f 171//158 175//156 178//163
f 178//163 137//130 171//158
f 137//130 178//163 12//12
f 178//163 13//13 12//12
f 13//13 178//163 17//17
f 178//163 175//156 179//164
f 178//163 179//164 17//17
f 175//156 176//156 179//164
f 17//17 179//164 180//165
f 181//166 180//165 179//164
f 179//164 176//156 181//166
f 180//165 181//166 182//167
f 182//167 181//166 35//35
f 181//166 176//156 183//168
f 181//166 183//168 35//35
f 176//156 177//162 183//168
f 183//168 33//33 35//35
f 33//33 183//168 31//31
f 183//168 177//162 184//169
f 183//168 184//169 31//31
f 177//162 163//151 184//169
f 31//31 184//169 34//34
f 143//135 184//169 163//151
f 142//135 34//34 184//169
f 184//169 143//135 142//135
f 180//165 15//15 17//17
f 15//15 180//165 185//170
f 182//167 185//170 180//165
f 182//167 35//35 36//36
f 15//15 185//170 186//171
f 16//16 15//15 186//171
f 20//20 16//16 186//171
f 186//171 114//110 20//20
f 185//170 182//167 187//172
f 36//36 187//172 182//167
f 186//171 185//170 188//173
f 187//172 188//173 185//170
f 114//110 186//171 189//174
f 189//174 117//113 114//110
f 186//171 188//173 190//175
f 189//174 186//171 190//175
f 188//173 187//172 191//176
f 191//176 190//175 188//173
f 187//172 36//36 192//177
f 191//176 187//172 192//177
f 192//177 36//36 37//37
f 192//177 37//37 38//38
f 140//133 38//38 40//40
f 38//38 140//133 193//178
f 193//178 192//177 38//38
f 160//148 193//178 140//133
f 192//177 194//175 191//176
f 190//175 191//176 194//175
f 192//177 193//178 195//179
f 194//175 192//177 195//179
f 193//178 160//148 196//180
f 196//180 195//179 193//178
f 25//25 196//180 160//148
f 196//180 25//25 27//27
f 195//179 196//180 197//181
f 27//27 197//181 196//180
f 197//181 194//175 195//179
f 197//181 27//27 198//182
f 26//26 198//182 27//27
f 198//182 26//26 28//28
f 87//85 198//182 28//28
f 199//183 198//182 87//85
f 199//183 197//181 198//182
f 85//85 199//183 87//85
f 194//175 197//181 200//175
f 199//183 200//175 197//181
f 190//175 194//175 200//175
f 201//184 199//183 85//85
f 201//184 200//175 199//183
f 200//175 202//175 190//175
f 202//175 200//175 201//184
f 190//175 202//175 189//174
f 85//85 203//185 201//184
f 203//185 85//85 8//8
f 6//6 203//185 8//8
f 7//7 203//185 6//6
f 201//184 204//174 202//175
f 204//174 201//184 203//185
f 204//174 189//174 202//175
f 7//7 204//174 203//185
f 117//113 189//174 204//174
f 204//174 7//7 117//113
f 56//56 167//155 57//57
f 167//155 56//56 205//186
f 205//186 168//155 167//155
f 168//155 73//73 75//75
f 206//187 205//186 56//56
f 55//55 206//187 56//56
f 59//59 206//187 55//55
f 62//62 206//187 59//59
f 168//155 205//186 207//188
f 207//188 73//73 168//155
f 205//186 206//187 208//189
f 208//189 207//188 205//186
f 206//187 62//62 209//190
f 126//121 209//190 62//62
f 206//187 210//191 208//189
f 206//187 209//190 210//191
f 207//188 208//189 211//192
f 210//191 211//192 208//189
f 209//190 126//121 212//193
f 212//193 210//191 209//190
f 47//47 212//193 126//121
f 211//192 210//191 213//191
f 212//193 47//47 214//194
f 47//47 46//46 214//194
f 46//46 50//50 214//194
f 214//194 50//50 104//101
f 210//191 212//193 215//191
f 215//191 213//191 210//191
f 214//194 216//195 212//193
f 212//193 216//195 215//191
f 214//194 104//101 216//195
f 216//195 217//191 215//191
f 213//191 215//191 217//191
f 104//101 218//196 216//195
f 217//191 216//195 218//196
f 218//196 104//101 101//99
f 217//191 219//197 213//191
f 218//196 101//99 220//198
f 101//99 70//70 220//198
f 220//198 70//70 67//67
f 220//198 67//67 69//69
f 217//191 218//196 221//197
f 218//196 220//198 221//197
f 69//69 221//197 220//198
f 219//197 217//191 221//197
f 221//197 69//69 222//199
f 222//199 219//197 221//197
f 68//68 222//199 69//69
f 222//199 68//68 155//144
f 155//144 223//200 222//199
f 219//197 222//199 223//200
f 223//200 155//144 152//142
f 77//77 152//142 79//79
f 152//142 77//77 223//200
f 223//200 224//201 219//197
f 224//201 223//200 77//77
f 224//201 213//191 219//197
f 76//76 224//201 77//77
f 213//191 224//201 211//192
f 224//201 76//76 73//73
f 207//188 211//192 224//201
f 207//188 224//201 73//73
