# Blender 4.0.2
# www.blender.org
mtllib SM_Steckdosenbox_04.mtl
o SM_Steckdosenbox_04
v -0.026833 0.049031 0.266693
v -0.026326 -0.018832 0.266800
v -0.026861 0.049058 0.283851
v -0.026354 -0.018805 0.283958
v -0.026131 0.048362 -0.158937
v -0.025926 0.048167 -0.283090
v -0.025419 -0.019696 -0.282982
v -0.025624 -0.019501 -0.158830
v -0.012813 -0.163630 0.072478
v 0.037410 -0.079594 0.072429
v -0.013438 -0.079974 0.072345
v 0.038035 -0.163250 0.072562
v 0.038263 -0.163467 -0.065475
v -0.013211 -0.080191 -0.065691
v 0.037638 -0.079811 -0.065607
v -0.012586 -0.163847 -0.065558
v 0.036060 0.054711 0.283946
v -0.014764 0.051736 0.281160
v 0.036084 0.052116 0.281243
v -0.014788 0.054331 0.283862
v -0.026900 0.054241 0.283843
v -0.024210 0.051666 0.281144
v -0.014764 0.051736 0.281160
v -0.025805 -0.019328 -0.049232
v -0.026312 0.048535 -0.049339
v -0.026251 0.048477 -0.086022
v -0.025744 -0.019386 -0.085915
v -0.026555 0.048767 0.098322
v -0.026085 -0.019062 0.120557
v -0.026592 0.048801 0.120449
v -0.026048 -0.019096 0.098430
v -0.026861 0.049058 0.283851
v -0.026354 -0.018805 0.283958
v -0.014750 0.049149 0.283871
v -0.014243 -0.018715 0.283978
v 0.036099 0.049529 0.283954
v 0.036606 -0.018335 0.284061
v -0.013211 -0.080191 -0.065691
v -0.012586 -0.163847 -0.065558
v -0.012622 -0.163812 -0.043431
v -0.013247 -0.080156 -0.043564
v -0.012777 -0.163665 0.050351
v -0.013402 -0.080009 0.050218
v -0.012813 -0.163630 0.072478
v -0.013438 -0.079974 0.072345
v 0.037541 -0.019225 -0.282879
v -0.013815 0.048258 -0.283070
v 0.037034 0.048638 -0.282987
v -0.013308 -0.019605 -0.282962
v -0.025926 0.048167 -0.283090
v -0.025419 -0.019696 -0.282982
v -0.015009 0.083931 0.283816
v -0.014981 0.083905 0.266658
v -0.027031 0.071729 0.283815
v -0.027002 0.071702 0.266657
v -0.014740 0.083675 0.120414
v -0.026761 0.071473 0.120413
v -0.014703 0.083640 0.098287
v -0.026725 0.071438 0.098286
v -0.014460 0.083408 -0.049375
v -0.026481 0.071206 -0.049375
v -0.014399 0.083351 -0.086057
v -0.026421 0.071148 -0.086058
v -0.014279 0.083236 -0.158972
v -0.026300 0.071034 -0.158973
v -0.014074 0.083041 -0.283125
v -0.026096 0.070839 -0.283126
v -0.018818 -0.080360 -0.146055
v -0.025012 -0.074250 -0.282896
v -0.018592 -0.080575 -0.282875
v -0.025237 -0.074035 -0.146075
v -0.018950 -0.080234 -0.065700
v -0.025370 -0.073909 -0.065720
v -0.018987 -0.080199 -0.043573
v -0.025406 -0.073874 -0.043594
v -0.019142 -0.080052 0.050209
v -0.025561 -0.073727 0.050188
v -0.019178 -0.080017 0.072336
v -0.025597 -0.073692 0.072315
v -0.019491 -0.079720 0.261833
v -0.025910 -0.073394 0.261813
v -0.019527 -0.079685 0.284065
v -0.025947 -0.073359 0.284045
v -0.025585 -0.024684 -0.158821
v -0.025380 -0.024879 -0.282974
v -0.025012 -0.074250 -0.282896
v -0.025237 -0.074035 -0.146075
v -0.025705 -0.024570 -0.085907
v -0.025370 -0.073909 -0.065720
v -0.025766 -0.024512 -0.049224
v -0.025406 -0.073874 -0.043594
v -0.025561 -0.073727 0.050188
v -0.026010 -0.024280 0.098438
v -0.025597 -0.073692 0.072315
v -0.026046 -0.024246 0.120565
v -0.025910 -0.073394 0.261813
v -0.026287 -0.024016 0.266808
v -0.025947 -0.073359 0.284045
v -0.026315 -0.023989 0.283966
v -0.014243 -0.018715 0.283978
v -0.026354 -0.018805 0.283958
v -0.023664 -0.021381 0.281260
v -0.014219 -0.021311 0.281275
v 0.036606 -0.018335 0.284061
v 0.036630 -0.020931 0.281358
v 0.037034 0.048638 -0.282987
v -0.013838 0.050854 -0.280367
v 0.037010 0.051234 -0.280284
v -0.013815 0.048258 -0.283070
v -0.023284 0.050784 -0.280382
v -0.025926 0.048167 -0.283090
v -0.024210 0.051666 0.281144
v -0.026833 0.049031 0.266693
v -0.026861 0.049058 0.283851
v -0.024182 0.051639 0.264271
v -0.026592 0.048801 0.120449
v -0.023945 0.051413 0.120449
v -0.023909 0.051378 0.098323
v -0.026555 0.048767 0.098322
v -0.023665 0.051146 -0.049339
v -0.026312 0.048535 -0.049339
v -0.023605 0.051089 -0.086022
v -0.026251 0.048477 -0.086022
v -0.023486 0.050976 -0.157935
v -0.026131 0.048362 -0.158937
v -0.023284 0.050784 -0.280382
v -0.025926 0.048167 -0.283090
v -0.025624 -0.019501 -0.158830
v -0.025419 -0.019696 -0.282982
v -0.022738 -0.022263 -0.280267
v -0.022940 -0.022071 -0.157819
v -0.025744 -0.019386 -0.085915
v -0.023059 -0.021958 -0.085906
v -0.023119 -0.021900 -0.049223
v -0.025805 -0.019328 -0.049232
v -0.023363 -0.021668 0.098438
v -0.026048 -0.019096 0.098430
v -0.023399 -0.021634 0.120565
v -0.026085 -0.019062 0.120557
v -0.023637 -0.021408 0.264387
v -0.026326 -0.018832 0.266800
v -0.023664 -0.021381 0.281260
v -0.026354 -0.018805 0.283958
v -0.013293 -0.022193 -0.280251
v 0.037556 -0.021813 -0.280168
v 0.037580 -0.024409 -0.282871
v -0.013269 -0.024789 -0.282954
v -0.022738 -0.022263 -0.280267
v -0.025380 -0.024879 -0.282974
v -0.026900 0.054241 0.283843
v -0.026872 0.054214 0.266685
v -0.024210 0.051666 0.281144
v -0.024182 0.051639 0.264271
v -0.026630 0.053984 0.120441
v -0.023945 0.051413 0.120449
v -0.026594 0.053949 0.098314
v -0.023909 0.051378 0.098323
v -0.026350 0.053717 -0.049348
v -0.023665 0.051146 -0.049339
v -0.026290 0.053660 -0.086030
v -0.023605 0.051089 -0.086022
v -0.023486 0.050976 -0.157935
v -0.026170 0.053545 -0.158945
v -0.023284 0.050784 -0.280382
v -0.025965 0.053350 -0.283098
v -0.025380 -0.024879 -0.282974
v -0.025585 -0.024684 -0.158821
v -0.022738 -0.022263 -0.280267
v -0.022940 -0.022071 -0.157819
v -0.025705 -0.024570 -0.085907
v -0.023059 -0.021958 -0.085906
v -0.025766 -0.024512 -0.049224
v -0.023119 -0.021900 -0.049223
v -0.026010 -0.024280 0.098438
v -0.023363 -0.021668 0.098438
v -0.026046 -0.024246 0.120565
v -0.023399 -0.021634 0.120565
v -0.023637 -0.021408 0.264387
v -0.026287 -0.024016 0.266808
v -0.023664 -0.021381 0.281260
v -0.026315 -0.023989 0.283966
v -0.014074 0.083041 -0.283125
v -0.014279 0.083236 -0.158972
v 0.036774 0.083421 -0.283042
v 0.036569 0.083616 -0.158889
v -0.014399 0.083351 -0.086057
v 0.036449 0.083731 -0.085974
v -0.014460 0.083408 -0.049375
v 0.036389 0.083788 -0.049291
v 0.036145 0.084020 0.098370
v -0.014703 0.083640 0.098287
v 0.036109 0.084055 0.120497
v -0.014740 0.083675 0.120414
v 0.035867 0.084285 0.266741
v -0.014981 0.083905 0.266658
v -0.015009 0.083931 0.283816
v 0.035839 0.084312 0.283899
v -0.014788 0.054331 0.283862
v -0.027031 0.071729 0.283815
v -0.026900 0.054241 0.283843
v -0.015009 0.083931 0.283816
v 0.035839 0.084312 0.283899
v 0.036060 0.054711 0.283946
v -0.013853 0.053441 -0.283078
v 0.036774 0.083421 -0.283042
v 0.036995 0.053821 -0.282995
v -0.014074 0.083041 -0.283125
v -0.026096 0.070839 -0.283126
v -0.025965 0.053350 -0.283098
v -0.013269 -0.024789 -0.282954
v 0.037580 -0.024409 -0.282871
v 0.037996 -0.080152 -0.282783
v -0.012852 -0.080532 -0.282866
v -0.025012 -0.074250 -0.282896
v -0.025380 -0.024879 -0.282974
v -0.018592 -0.080575 -0.282875
v -0.027031 0.071729 0.283815
v -0.026872 0.054214 0.266685
v -0.026900 0.054241 0.283843
v -0.027002 0.071702 0.266657
v -0.026761 0.071473 0.120413
v -0.026630 0.053984 0.120441
v -0.026725 0.071438 0.098286
v -0.026594 0.053949 0.098314
v -0.026481 0.071206 -0.049375
v -0.026350 0.053717 -0.049348
v -0.026421 0.071148 -0.086058
v -0.026290 0.053660 -0.086030
v -0.026170 0.053545 -0.158945
v -0.026300 0.071034 -0.158973
v -0.026096 0.070839 -0.283126
v -0.025965 0.053350 -0.283098
v 0.036645 -0.023518 0.284070
v -0.013787 -0.079642 0.284075
v 0.037061 -0.079262 0.284158
v -0.014204 -0.023898 0.283986
v -0.025947 -0.073359 0.284045
v -0.026315 -0.023989 0.283966
v -0.019527 -0.079685 0.284065
v -0.014750 0.049149 0.283871
v -0.024210 0.051666 0.281144
v -0.026861 0.049058 0.283851
v -0.014764 0.051736 0.281160
v 0.036084 0.052116 0.281243
v 0.036099 0.049529 0.283954
v 0.037556 -0.021813 -0.280168
v -0.013308 -0.019605 -0.282962
v 0.037541 -0.019225 -0.282879
v -0.013293 -0.022193 -0.280251
v -0.022738 -0.022263 -0.280267
v -0.025419 -0.019696 -0.282982
v -0.014204 -0.023898 0.283986
v -0.023664 -0.021381 0.281260
v -0.026315 -0.023989 0.283966
v -0.014219 -0.021311 0.281275
v 0.036630 -0.020931 0.281358
v 0.036645 -0.023518 0.284070
v 0.037010 0.051234 -0.280284
v -0.013838 0.050854 -0.280367
v -0.013853 0.053441 -0.283078
v 0.036995 0.053821 -0.282995
v -0.023284 0.050784 -0.280382
v -0.013838 0.050854 -0.280367
v -0.025965 0.053350 -0.283098
v -0.013078 -0.080317 -0.146045
v -0.012852 -0.080532 -0.282866
v 0.037996 -0.080152 -0.282783
v 0.037770 -0.079937 -0.145962
v -0.018592 -0.080575 -0.282875
v 0.037638 -0.079811 -0.065607
v -0.018818 -0.080360 -0.146055
v -0.013211 -0.080191 -0.065691
v -0.018950 -0.080234 -0.065700
v -0.013247 -0.080156 -0.043564
v -0.018987 -0.080199 -0.043573
v -0.013402 -0.080009 0.050218
v -0.019142 -0.080052 0.050209
v -0.013438 -0.079974 0.072345
v -0.019178 -0.080017 0.072336
v -0.013751 -0.079677 0.261843
v 0.037410 -0.079594 0.072429
v -0.019491 -0.079720 0.261833
v 0.037098 -0.079297 0.261926
v -0.019527 -0.079685 0.284065
v 0.037061 -0.079262 0.284158
v -0.013787 -0.079642 0.284075
vn -1.0000 -0.0075 -0.0016
vn -0.0017 0.0016 1.0000
vn 0.0016 -0.0016 -1.0000
vn 0.0043 -0.7213 0.6926
vn 0.0043 -0.7211 0.6928
vn 0.0042 -0.7210 0.6929
vn 0.0043 -0.7210 0.6930
vn -0.0016 0.0016 1.0000
vn 0.0017 -0.0016 -1.0000
vn -0.7124 0.7018 -0.0023
vn -0.7019 -0.7123 -0.0000
vn 0.0043 -0.7212 0.6927
vn -0.0043 0.7212 -0.6927
vn -0.7024 0.7118 -0.0023
vn -0.6917 -0.7222 -0.0000
vn -0.6915 -0.7224 -0.0000
vn -0.6914 -0.7225 -0.0000
vn -0.6916 -0.7223 -0.0000
vn -0.7022 0.7120 -0.0023
vn -0.0075 1.0000 -0.0016
vn -0.0065 0.7233 0.6905
vn 0.0065 -0.7233 -0.6905
vn 0.0065 -0.7232 -0.6906
vn 0.0065 -0.7235 -0.6903
vn 0.0065 -0.7231 -0.6907
vn 0.0075 -1.0000 0.0016
s 1
usemtl M_Metal_Brushed
f 1//1 2//1 3//1
f 3//1 2//1 4//1
f 5//1 6//1 7//1
f 5//1 7//1 8//1
f 9//2 10//2 11//2
f 10//2 9//2 12//2
f 13//3 14//3 15//3
f 14//3 13//3 16//3
f 17//4 18//4 19//5
f 18//4 17//4 20//4
f 20//6 21//7 22//5
f 20//6 22//5 23//4
f 24//1 25//1 26//1
f 26//1 27//1 24//1
f 28//1 29//1 30//1
f 29//1 28//1 31//1
f 32//8 33//8 34//8
f 34//8 33//8 35//8
f 34//8 35//8 36//8
f 36//8 35//8 37//8
f 38//1 39//1 40//1
f 40//1 41//1 38//1
f 41//1 40//1 42//1
f 43//1 41//1 42//1
f 44//1 43//1 42//1
f 43//1 44//1 45//1
f 46//3 47//3 48//9
f 47//3 46//3 49//9
f 47//3 49//9 50//3
f 50//3 49//9 51//9
f 52//10 53//10 54//10
f 53//10 55//10 54//10
f 53//10 56//10 55//10
f 57//10 55//10 56//10
f 58//10 57//10 56//10
f 57//10 58//10 59//10
f 58//10 60//10 59//10
f 61//10 59//10 60//10
f 60//10 62//10 61//10
f 63//10 61//10 62//10
f 62//10 64//10 63//10
f 65//10 63//10 64//10
f 64//10 66//10 65//10
f 67//10 65//10 66//10
f 68//11 69//11 70//11
f 69//11 68//11 71//11
f 72//11 71//11 68//11
f 71//11 72//11 73//11
f 72//11 74//11 73//11
f 75//11 73//11 74//11
f 74//11 76//11 75//11
f 77//11 75//11 76//11
f 78//11 77//11 76//11
f 77//11 78//11 79//11
f 78//11 80//11 79//11
f 81//11 79//11 80//11
f 80//11 82//11 81//11
f 83//11 81//11 82//11
f 84//1 85//1 86//1
f 86//1 87//1 84//1
f 88//1 84//1 87//1
f 87//1 89//1 88//1
f 89//1 90//1 88//1
f 90//1 89//1 91//1
f 92//1 90//1 91//1
f 93//1 90//1 92//1
f 94//1 93//1 92//1
f 94//1 95//1 93//1
f 94//1 96//1 95//1
f 97//1 95//1 96//1
f 98//1 97//1 96//1
f 97//1 98//1 99//1
f 100//12 101//12 102//12
f 102//12 103//12 100//12
f 104//12 100//12 103//12
f 103//12 105//12 104//12
f 106//13 107//13 108//13
f 107//13 106//13 109//13
f 109//13 110//13 107//13
f 109//13 111//13 110//13
f 112//14 113//14 114//14
f 112//14 115//14 113//14
f 115//14 116//14 113//14
f 115//14 117//14 116//14
f 118//14 116//14 117//14
f 116//14 118//14 119//14
f 118//14 120//14 119//14
f 121//14 119//14 120//14
f 120//14 122//14 121//14
f 123//14 121//14 122//14
f 124//14 123//14 122//14
f 123//14 124//14 125//14
f 124//14 126//14 125//14
f 127//14 125//14 126//14
f 128//15 129//16 130//15
f 130//15 131//16 128//15
f 132//17 128//15 131//16
f 132//17 131//16 133//17
f 133//17 134//15 132//17
f 135//15 132//17 134//15
f 136//17 135//15 134//15
f 135//15 136//17 137//15
f 138//16 137//15 136//17
f 137//15 138//16 139//16
f 138//16 140//15 139//16
f 141//15 139//16 140//15
f 142//15 141//15 140//15
f 143//15 141//15 142//15
f 144//13 145//13 146//13
f 146//13 147//13 144//13
f 148//13 144//13 147//13
f 147//13 149//13 148//13
f 150//18 151//18 152//18
f 152//18 151//18 153//18
f 151//18 154//18 153//18
f 155//18 153//18 154//18
f 156//18 155//18 154//18
f 155//18 156//18 157//18
f 156//18 158//18 157//18
f 159//18 157//18 158//18
f 158//18 160//18 159//18
f 161//18 159//18 160//18
f 160//18 162//18 161//18
f 160//18 163//18 162//18
f 163//18 164//18 162//18
f 163//18 165//18 164//18
f 166//19 167//14 168//14
f 169//14 168//14 167//14
f 170//14 169//14 167//14
f 169//14 170//14 171//14
f 170//14 172//14 171//14
f 173//14 171//14 172//14
f 174//14 173//14 172//14
f 173//14 174//14 175//14
f 176//14 175//14 174//14
f 175//14 176//14 177//14
f 178//14 177//14 176//14
f 176//14 179//14 178//14
f 180//14 178//14 179//14
f 179//14 181//14 180//14
f 182//20 183//20 184//20
f 185//20 184//20 183//20
f 185//20 183//20 186//20
f 187//20 185//20 186//20
f 187//20 186//20 188//20
f 189//20 187//20 188//20
f 188//20 190//20 189//20
f 190//20 188//20 191//20
f 191//20 192//20 190//20
f 192//20 191//20 193//20
f 193//20 194//20 192//20
f 194//20 193//20 195//20
f 196//20 194//20 195//20
f 194//20 196//20 197//20
f 198//2 199//8 200//2
f 198//2 201//8 199//8
f 201//8 198//2 202//8
f 202//8 198//2 203//8
f 204//3 205//3 206//3
f 205//3 204//3 207//3
f 207//3 204//3 208//3
f 208//3 204//3 209//3
f 210//3 211//3 212//3
f 210//3 212//3 213//9
f 214//3 210//3 213//9
f 210//3 214//3 215//3
f 214//3 213//9 216//3
f 217//1 218//1 219//1
f 220//1 218//1 217//1
f 220//1 221//1 218//1
f 222//1 218//1 221//1
f 223//1 222//1 221//1
f 222//1 223//1 224//1
f 223//1 225//1 224//1
f 226//1 224//1 225//1
f 225//1 227//1 226//1
f 228//1 226//1 227//1
f 227//1 229//1 228//1
f 227//1 230//1 229//1
f 230//1 231//1 229//1
f 232//1 229//1 231//1
f 233//8 234//8 235//8
f 233//8 236//8 234//8
f 236//8 237//8 234//8
f 238//8 237//8 236//8
f 234//8 237//8 239//8
f 240//21 241//21 242//21
f 241//21 240//21 243//21
f 244//21 243//21 240//21
f 240//21 245//21 244//21
f 246//22 247//22 248//22
f 247//22 246//22 249//22
f 250//22 247//22 249//22
f 247//22 250//22 251//22
f 252//21 253//21 254//21
f 253//21 252//21 255//21
f 252//21 256//21 255//21
f 256//21 252//21 257//21
f 258//23 259//23 260//24
f 260//24 261//24 258//23
f 262//24 260//23 263//23
f 260//23 262//24 264//25
f 265//26 266//26 267//26
f 265//26 267//26 268//26
f 266//26 265//26 269//26
f 270//26 265//26 268//26
f 271//26 269//26 265//26
f 265//26 270//26 272//26
f 265//26 272//26 271//26
f 273//26 271//26 272//26
f 272//26 274//26 273//26
f 275//26 273//26 274//26
f 274//26 276//26 275//26
f 277//26 275//26 276//26
f 278//26 277//26 276//26
f 277//26 278//26 279//26
f 278//26 280//26 279//26
f 281//26 280//26 278//26
f 282//26 279//26 280//26
f 280//26 281//26 283//26
f 284//26 282//26 280//26
f 285//26 280//26 283//26
f 284//26 280//26 286//26
f 280//26 285//26 286//26
