# Blender 4.0.2
# www.blender.org
mtllib SM_Steckdosenbox_03.mtl
o SM_Steckdosenbox_03
v -0.026833 0.048501 0.270026
v -0.026329 -0.019356 0.286192
v -0.026859 0.048507 0.286168
v -0.026303 -0.019362 0.270050
v -0.026144 0.048356 -0.154184
v -0.025932 0.048311 -0.284797
v -0.025402 -0.019552 -0.284772
v -0.025614 -0.019507 -0.154160
v -0.013384 -0.080264 0.065683
v -0.012753 -0.161118 0.065712
v 0.037464 -0.079867 0.065767
v 0.038095 -0.160721 0.065795
v 0.037688 -0.079915 -0.072270
v 0.038319 -0.160768 -0.072241
v -0.013160 -0.080312 -0.072352
v -0.012529 -0.161165 -0.072324
v 0.036060 0.054181 0.286268
v -0.014763 0.051192 0.283480
v 0.036085 0.051589 0.283563
v -0.014788 0.053784 0.286185
v -0.026900 0.053690 0.286166
v -0.024209 0.051118 0.283465
v -0.014763 0.051192 0.283480
v -0.025802 -0.019468 -0.038914
v -0.026331 0.048395 -0.038938
v -0.026277 0.048384 -0.072418
v -0.025747 -0.019479 -0.072394
v -0.026573 0.048446 0.109815
v -0.026079 -0.019409 0.131966
v -0.026609 0.048454 0.131943
v -0.026043 -0.019417 0.109839
v -0.026859 0.048507 0.286168
v -0.026329 -0.019356 0.286192
v -0.014748 0.048601 0.286187
v -0.014218 -0.019262 0.286211
v 0.036101 0.048998 0.286270
v 0.036631 -0.018865 0.286294
v -0.013160 -0.080312 -0.072352
v -0.012529 -0.161165 -0.072324
v -0.012565 -0.161158 -0.050197
v -0.013196 -0.080304 -0.050225
v -0.012717 -0.161125 0.043585
v -0.013348 -0.080272 0.043556
v -0.012753 -0.161118 0.065712
v -0.013384 -0.080264 0.065683
v 0.037558 -0.019060 -0.284670
v -0.013821 0.048406 -0.284777
v 0.037028 0.048803 -0.284694
v -0.013291 -0.019457 -0.284753
v -0.025932 0.048311 -0.284797
v -0.025402 -0.019552 -0.284772
v -0.015019 0.083384 0.286175
v -0.014993 0.083379 0.270033
v -0.027036 0.071178 0.286160
v -0.027010 0.071172 0.270018
v -0.014769 0.083331 0.131950
v -0.026786 0.071125 0.131935
v -0.014733 0.083324 0.109822
v -0.026750 0.071118 0.109807
v -0.014491 0.083273 -0.038931
v -0.026508 0.071067 -0.038946
v -0.014437 0.083261 -0.072411
v -0.026454 0.071055 -0.072426
v -0.014304 0.083233 -0.154176
v -0.026321 0.071027 -0.154192
v -0.014092 0.083189 -0.284789
v -0.026109 0.070982 -0.284805
v -0.018767 -0.080384 -0.154128
v -0.024977 -0.074106 -0.284753
v -0.018555 -0.080429 -0.284740
v -0.025189 -0.074061 -0.154140
v -0.018900 -0.080356 -0.072362
v -0.025321 -0.074033 -0.072374
v -0.018936 -0.080349 -0.050235
v -0.025357 -0.074026 -0.050247
v -0.019088 -0.080317 0.043547
v -0.025510 -0.073994 0.043534
v -0.019124 -0.080309 0.065674
v -0.025546 -0.073986 0.065661
v -0.019402 -0.080251 0.236920
v -0.025824 -0.073927 0.236907
v -0.019482 -0.080234 0.286224
v -0.025904 -0.073911 0.286211
v -0.014218 -0.019262 0.286211
v -0.026329 -0.019356 0.286192
v -0.023639 -0.021928 0.283491
v -0.014193 -0.021855 0.283506
v 0.036631 -0.018865 0.286294
v 0.036655 -0.021458 0.283589
v 0.037028 0.048803 -0.284694
v -0.013845 0.050999 -0.282071
v 0.037003 0.051395 -0.281988
v -0.013821 0.048406 -0.284777
v -0.023291 0.050925 -0.282086
v -0.025932 0.048311 -0.284797
v -0.024209 0.051118 0.283465
v -0.026833 0.048501 0.270026
v -0.026859 0.048507 0.286168
v -0.024185 0.051113 0.268676
v -0.026609 0.048454 0.131943
v -0.023963 0.051067 0.131946
v -0.023927 0.051059 0.109818
v -0.026573 0.048446 0.109815
v -0.023686 0.051008 -0.038934
v -0.026331 0.048395 -0.038938
v -0.023631 0.050997 -0.072414
v -0.026277 0.048384 -0.072418
v -0.023500 0.050969 -0.153138
v -0.026144 0.048356 -0.154184
v -0.023291 0.050925 -0.282086
v -0.025932 0.048311 -0.284797
v -0.025614 -0.019507 -0.154160
v -0.025402 -0.019552 -0.284772
v -0.022721 -0.022122 -0.282060
v -0.022930 -0.022078 -0.153112
v -0.025747 -0.019479 -0.072394
v -0.023061 -0.022050 -0.072388
v -0.023115 -0.022039 -0.038909
v -0.025802 -0.019468 -0.038914
v -0.023357 -0.021988 0.109844
v -0.026043 -0.019417 0.109839
v -0.023393 -0.021980 0.131971
v -0.026079 -0.019409 0.131966
v -0.023615 -0.021933 0.268702
v -0.026303 -0.019362 0.270050
v -0.023639 -0.021928 0.283491
v -0.026329 -0.019356 0.286192
v -0.013275 -0.022048 -0.282045
v 0.037573 -0.021651 -0.281962
v 0.037598 -0.024244 -0.284669
v -0.013250 -0.024641 -0.284751
v -0.022721 -0.022122 -0.282060
v -0.025362 -0.024736 -0.284771
v -0.026900 0.053690 0.286166
v -0.026873 0.053684 0.270024
v -0.024209 0.051118 0.283465
v -0.024185 0.051113 0.268676
v -0.026649 0.053637 0.131941
v -0.023963 0.051067 0.131946
v -0.026613 0.053629 0.109813
v -0.023927 0.051059 0.109818
v -0.026372 0.053578 -0.038940
v -0.023686 0.051008 -0.038934
v -0.026317 0.053567 -0.072420
v -0.023631 0.050997 -0.072414
v -0.023500 0.050969 -0.153138
v -0.026185 0.053539 -0.154186
v -0.023291 0.050925 -0.282086
v -0.025973 0.053494 -0.284798
v -0.025362 -0.024736 -0.284771
v -0.025574 -0.024691 -0.154158
v -0.022721 -0.022122 -0.282060
v -0.022930 -0.022078 -0.153112
v -0.025707 -0.024663 -0.072392
v -0.023061 -0.022050 -0.072388
v -0.025761 -0.024651 -0.038912
v -0.023115 -0.022039 -0.038909
v -0.026003 -0.024600 0.109841
v -0.023357 -0.021988 0.109844
v -0.026039 -0.024593 0.131968
v -0.023393 -0.021980 0.131971
v -0.023615 -0.021933 0.268702
v -0.026263 -0.024546 0.270052
v -0.023639 -0.021928 0.283491
v -0.026289 -0.024540 0.286194
v -0.014092 0.083189 -0.284789
v -0.014304 0.083233 -0.154176
v 0.036756 0.083586 -0.284707
v 0.036544 0.083630 -0.154094
v -0.014437 0.083261 -0.072411
v 0.036412 0.083658 -0.072328
v -0.014491 0.083273 -0.038931
v 0.036357 0.083670 -0.038848
v -0.014733 0.083324 0.109822
v 0.036116 0.083721 0.109905
v 0.036080 0.083728 0.132032
v -0.014769 0.083331 0.131950
v 0.035856 0.083776 0.270115
v -0.014993 0.083379 0.270033
v 0.035829 0.083781 0.286257
v -0.015019 0.083384 0.286175
v -0.026263 -0.024546 0.270052
v -0.025904 -0.073911 0.286211
v -0.026289 -0.024540 0.286194
v -0.025824 -0.073927 0.236907
v -0.026039 -0.024593 0.131968
v -0.025546 -0.073986 0.065661
v -0.026003 -0.024600 0.109841
v -0.025510 -0.073994 0.043534
v -0.025761 -0.024651 -0.038912
v -0.025357 -0.074026 -0.050247
v -0.025707 -0.024663 -0.072392
v -0.025321 -0.074033 -0.072374
v -0.025574 -0.024691 -0.154158
v -0.025189 -0.074061 -0.154140
v -0.024977 -0.074106 -0.284753
v -0.025362 -0.024736 -0.284771
v -0.014788 0.053784 0.286185
v -0.027036 0.071178 0.286160
v -0.026900 0.053690 0.286166
v -0.015019 0.083384 0.286175
v 0.035829 0.083781 0.286257
v 0.036060 0.054181 0.286268
v -0.013861 0.053589 -0.284779
v 0.036756 0.083586 -0.284707
v 0.036987 0.053985 -0.284696
v -0.014092 0.083189 -0.284789
v -0.026109 0.070982 -0.284805
v -0.025973 0.053494 -0.284798
v -0.013250 -0.024641 -0.284751
v 0.037598 -0.024244 -0.284669
v 0.038033 -0.079987 -0.284649
v -0.012815 -0.080384 -0.284731
v -0.024977 -0.074106 -0.284753
v -0.025362 -0.024736 -0.284771
v -0.018555 -0.080429 -0.284740
v -0.027036 0.071178 0.286160
v -0.026873 0.053684 0.270024
v -0.026900 0.053690 0.286166
v -0.027010 0.071172 0.270018
v -0.026786 0.071125 0.131935
v -0.026649 0.053637 0.131941
v -0.026750 0.071118 0.109807
v -0.026613 0.053629 0.109813
v -0.026508 0.071067 -0.038946
v -0.026372 0.053578 -0.038940
v -0.026454 0.071055 -0.072426
v -0.026317 0.053567 -0.072420
v -0.026185 0.053539 -0.154186
v -0.026321 0.071027 -0.154192
v -0.026109 0.070982 -0.284805
v -0.025973 0.053494 -0.284798
v 0.036671 -0.024049 0.286296
v -0.013742 -0.080189 0.286233
v 0.037106 -0.079792 0.286315
v -0.014177 -0.024446 0.286213
v -0.025904 -0.073911 0.286211
v -0.026289 -0.024540 0.286194
v -0.019482 -0.080234 0.286224
v -0.014748 0.048601 0.286187
v -0.024209 0.051118 0.283465
v -0.026859 0.048507 0.286168
v -0.014763 0.051192 0.283480
v 0.036085 0.051589 0.283563
v 0.036101 0.048998 0.286270
v 0.037573 -0.021651 -0.281962
v -0.013291 -0.019457 -0.284753
v 0.037558 -0.019060 -0.284670
v -0.013275 -0.022048 -0.282045
v -0.022721 -0.022122 -0.282060
v -0.025402 -0.019552 -0.284772
v -0.014177 -0.024446 0.286213
v -0.023639 -0.021928 0.283491
v -0.026289 -0.024540 0.286194
v -0.014193 -0.021855 0.283506
v 0.036655 -0.021458 0.283589
v 0.036671 -0.024049 0.286296
v 0.037003 0.051395 -0.281988
v -0.013845 0.050999 -0.282071
v -0.013861 0.053589 -0.284779
v 0.036987 0.053985 -0.284696
v -0.023291 0.050925 -0.282086
v -0.013845 0.050999 -0.282071
v -0.025973 0.053494 -0.284798
v -0.013742 -0.080189 0.286233
v 0.037186 -0.079809 0.237012
v 0.037106 -0.079792 0.286315
v -0.013662 -0.080206 0.236929
v 0.037464 -0.079867 0.065767
v -0.019482 -0.080234 0.286224
v -0.019402 -0.080251 0.236920
v -0.013384 -0.080264 0.065683
v -0.019124 -0.080309 0.065674
v -0.019088 -0.080317 0.043547
v -0.013348 -0.080272 0.043556
v -0.018936 -0.080349 -0.050235
v -0.013196 -0.080304 -0.050225
v -0.018900 -0.080356 -0.072362
v -0.013160 -0.080312 -0.072352
v -0.018767 -0.080384 -0.154128
v -0.013027 -0.080340 -0.154118
v -0.018555 -0.080429 -0.284740
v 0.037688 -0.079915 -0.072270
v -0.012815 -0.080384 -0.284731
v 0.037821 -0.079943 -0.154036
v 0.038033 -0.079987 -0.284649
vn -1.0000 -0.0078 -0.0016
vn -0.0016 0.0003 1.0000
vn 0.0016 -0.0003 -1.0000
vn 0.0045 -0.7220 0.6918
vn -0.7126 0.7016 -0.0014
vn -0.7016 -0.7126 -0.0009
vn -0.7016 -0.7125 -0.0009
vn 0.0045 -0.7219 0.6920
vn 0.0045 -0.7221 0.6917
vn -0.0045 0.7220 -0.6919
vn -0.7027 0.7115 -0.0014
vn -0.6915 -0.7224 -0.0009
vn -0.6912 -0.7226 -0.0009
vn -0.6913 -0.7225 -0.0009
vn -0.0078 1.0000 -0.0004
vn -0.0068 0.7224 0.6915
vn -0.0068 0.7227 0.6911
vn 0.0068 -0.7225 -0.6913
vn -0.0068 0.7226 0.6912
vn 0.0068 -0.7226 -0.6912
vn 0.0068 -0.7223 -0.6916
vn 0.0068 -0.7224 -0.6914
vn 0.0068 -0.7223 -0.6915
vn 0.0078 -1.0000 0.0004
s 1
usemtl M_Metal_Brushed
f 1//1 2//1 3//1
f 2//1 1//1 4//1
f 5//1 6//1 7//1
f 5//1 7//1 8//1
f 9//2 10//2 11//2
f 11//2 10//2 12//2
f 13//3 14//3 15//3
f 15//3 14//3 16//3
f 17//4 18//4 19//4
f 18//4 17//4 20//4
f 20//4 21//4 22//4
f 20//4 22//4 23//4
f 24//1 25//1 26//1
f 26//1 27//1 24//1
f 28//1 29//1 30//1
f 29//1 28//1 31//1
f 32//2 33//2 34//2
f 34//2 33//2 35//2
f 34//2 35//2 36//2
f 36//2 35//2 37//2
f 38//1 39//1 40//1
f 40//1 41//1 38//1
f 41//1 40//1 42//1
f 43//1 41//1 42//1
f 44//1 43//1 42//1
f 43//1 44//1 45//1
f 46//3 47//3 48//3
f 47//3 46//3 49//3
f 47//3 49//3 50//3
f 50//3 49//3 51//3
f 52//5 53//5 54//5
f 53//5 55//5 54//5
f 53//5 56//5 55//5
f 57//5 55//5 56//5
f 58//5 57//5 56//5
f 57//5 58//5 59//5
f 58//5 60//5 59//5
f 61//5 59//5 60//5
f 60//5 62//5 61//5
f 63//5 61//5 62//5
f 62//5 64//5 63//5
f 65//5 63//5 64//5
f 64//5 66//5 65//5
f 67//5 65//5 66//5
f 68//6 69//7 70//7
f 69//7 68//6 71//6
f 72//6 71//6 68//6
f 71//6 72//6 73//6
f 72//6 74//6 73//6
f 75//6 73//6 74//6
f 74//6 76//7 75//6
f 77//7 75//6 76//7
f 78//6 77//7 76//7
f 77//7 78//6 79//6
f 78//6 80//6 79//6
f 81//6 79//6 80//6
f 80//6 82//7 81//6
f 83//7 81//6 82//7
f 84//8 85//8 86//8
f 86//8 87//8 84//8
f 88//9 84//8 87//8
f 87//8 89//8 88//9
f 90//10 91//10 92//10
f 91//10 90//10 93//10
f 93//10 94//10 91//10
f 93//10 95//10 94//10
f 96//11 97//11 98//11
f 96//11 99//11 97//11
f 99//11 100//11 97//11
f 99//11 101//11 100//11
f 102//11 100//11 101//11
f 100//11 102//11 103//11
f 102//11 104//11 103//11
f 105//11 103//11 104//11
f 104//11 106//11 105//11
f 107//11 105//11 106//11
f 108//11 107//11 106//11
f 107//11 108//11 109//11
f 108//11 110//11 109//11
f 111//11 109//11 110//11
f 112//12 113//13 114//13
f 114//13 115//12 112//12
f 116//12 112//12 115//12
f 116//12 115//12 117//13
f 117//13 118//12 116//12
f 119//12 116//12 118//12
f 120//13 119//12 118//12
f 119//12 120//13 121//13
f 122//12 121//13 120//13
f 121//13 122//12 123//12
f 122//12 124//12 123//12
f 125//12 123//12 124//12
f 126//13 125//12 124//12
f 127//12 125//12 126//13
f 128//10 129//10 130//10
f 130//10 131//10 128//10
f 132//10 128//10 131//10
f 131//10 133//10 132//10
f 134//14 135//14 136//14
f 136//14 135//14 137//14
f 135//14 138//14 137//14
f 139//14 137//14 138//14
f 140//14 139//14 138//14
f 139//14 140//14 141//14
f 140//14 142//14 141//14
f 143//14 141//14 142//14
f 142//14 144//14 143//14
f 145//14 143//14 144//14
f 144//14 146//14 145//14
f 146//14 144//14 147//14
f 147//14 148//14 146//14
f 147//14 149//14 148//14
f 150//11 151//11 152//11
f 153//11 152//11 151//11
f 154//11 153//11 151//11
f 153//11 154//11 155//11
f 154//11 156//11 155//11
f 157//11 155//11 156//11
f 158//11 157//11 156//11
f 157//11 158//11 159//11
f 160//11 159//11 158//11
f 159//11 160//11 161//11
f 162//11 161//11 160//11
f 160//11 163//11 162//11
f 164//11 162//11 163//11
f 163//11 165//11 164//11
f 166//15 167//15 168//15
f 169//15 168//15 167//15
f 169//15 167//15 170//15
f 171//15 169//15 170//15
f 171//15 170//15 172//15
f 173//15 171//15 172//15
f 174//15 173//15 172//15
f 173//15 174//15 175//15
f 174//15 176//15 175//15
f 176//15 174//15 177//15
f 177//15 178//15 176//15
f 178//15 177//15 179//15
f 179//15 180//15 178//15
f 180//15 179//15 181//15
f 182//1 183//1 184//1
f 183//1 182//1 185//1
f 182//1 186//1 185//1
f 187//1 185//1 186//1
f 187//1 186//1 188//1
f 188//1 189//1 187//1
f 188//1 190//1 189//1
f 189//1 190//1 191//1
f 191//1 190//1 192//1
f 192//1 193//1 191//1
f 194//1 193//1 192//1
f 193//1 194//1 195//1
f 194//1 196//1 195//1
f 194//1 197//1 196//1
f 198//2 199//2 200//2
f 198//2 201//2 199//2
f 201//2 198//2 202//2
f 202//2 198//2 203//2
f 204//3 205//3 206//3
f 205//3 204//3 207//3
f 207//3 204//3 208//3
f 208//3 204//3 209//3
f 210//3 211//3 212//3
f 210//3 212//3 213//3
f 214//3 210//3 213//3
f 210//3 214//3 215//3
f 214//3 213//3 216//3
f 217//1 218//1 219//1
f 220//1 218//1 217//1
f 220//1 221//1 218//1
f 222//1 218//1 221//1
f 223//1 222//1 221//1
f 222//1 223//1 224//1
f 223//1 225//1 224//1
f 226//1 224//1 225//1
f 225//1 227//1 226//1
f 228//1 226//1 227//1
f 227//1 229//1 228//1
f 227//1 230//1 229//1
f 230//1 231//1 229//1
f 232//1 229//1 231//1
f 233//2 234//2 235//2
f 233//2 236//2 234//2
f 236//2 237//2 234//2
f 238//2 237//2 236//2
f 234//2 237//2 239//2
f 240//16 241//16 242//16
f 241//16 240//16 243//17
f 244//17 243//17 240//16
f 240//16 245//16 244//17
f 246//18 247//18 248//18
f 247//18 246//18 249//18
f 250//18 247//18 249//18
f 247//18 250//18 251//18
f 252//19 253//19 254//17
f 253//19 252//19 255//17
f 252//19 256//16 255//17
f 256//16 252//19 257//16
f 258//20 259//20 260//20
f 260//20 261//21 258//20
f 262//22 260//22 263//23
f 260//22 262//22 264//20
f 265//24 266//24 267//24
f 266//24 265//24 268//24
f 268//24 269//24 266//24
f 270//24 268//24 265//24
f 270//24 271//24 268//24
f 269//24 268//24 272//24
f 271//24 273//24 268//24
f 272//24 268//24 273//24
f 274//24 272//24 273//24
f 272//24 274//24 275//24
f 274//24 276//24 275//24
f 277//24 275//24 276//24
f 276//24 278//24 277//24
f 279//24 277//24 278//24
f 278//24 280//24 279//24
f 281//24 279//24 280//24
f 280//24 282//24 281//24
f 281//24 283//24 279//24
f 284//24 281//24 282//24
f 283//24 281//24 285//24
f 281//24 284//24 286//24
f 281//24 286//24 285//24
