# Blender 4.0.2
# www.blender.org
mtllib SM_Steckdosenbox_01.mtl
o SM_Steckdosenbox_01
v -0.026334 -0.018981 0.273208
v -0.026848 0.048897 0.288875
v -0.026821 0.048883 0.273148
v -0.026361 -0.018967 0.288936
v -0.026089 0.048508 -0.151170
v -0.025854 0.048388 -0.287655
v -0.025367 -0.019477 -0.287595
v -0.025603 -0.019356 -0.151109
v -0.013432 -0.080002 0.068461
v -0.012825 -0.164721 0.068537
v 0.037416 -0.079637 0.068549
v 0.038024 -0.164356 0.068625
v 0.037654 -0.079759 -0.069486
v 0.038262 -0.164478 -0.069410
v -0.013194 -0.080124 -0.069574
v -0.012587 -0.164843 -0.069498
v 0.036075 0.054532 0.288979
v -0.014750 0.051573 0.286188
v 0.036098 0.051937 0.286275
v -0.014774 0.054167 0.288892
v -0.026885 0.054080 0.288871
v -0.024196 0.051505 0.286172
v -0.014750 0.051573 0.286188
v -0.025793 -0.019258 -0.040589
v -0.026280 0.048606 -0.040650
v -0.026213 0.048571 -0.079673
v -0.025726 -0.019293 -0.079612
v -0.026524 0.048731 0.101198
v -0.026076 -0.019113 0.123385
v -0.026563 0.048751 0.123325
v -0.026038 -0.019133 0.101259
v -0.026848 0.048897 0.288875
v -0.026361 -0.018967 0.288936
v -0.014736 0.048984 0.288896
v -0.014250 -0.018880 0.288957
v 0.036112 0.049349 0.288984
v 0.036599 -0.018515 0.289044
v -0.013194 -0.080124 -0.069574
v -0.012587 -0.164843 -0.069498
v -0.012625 -0.164824 -0.047371
v -0.013233 -0.080104 -0.047447
v -0.012787 -0.164741 0.046411
v -0.013394 -0.080021 0.046335
v -0.012825 -0.164721 0.068537
v -0.013432 -0.080002 0.068461
v 0.037593 -0.019025 -0.287486
v -0.013742 0.048474 -0.287635
v 0.037106 0.048839 -0.287547
v -0.013256 -0.019390 -0.287574
v -0.025854 0.048388 -0.287655
v -0.025367 -0.019477 -0.287595
v -0.014986 0.083767 0.288865
v -0.014959 0.083753 0.273137
v -0.027011 0.071568 0.288855
v -0.026983 0.071554 0.273127
v -0.014700 0.083621 0.123314
v -0.026725 0.071421 0.123304
v -0.014662 0.083601 0.101187
v -0.026687 0.071402 0.101178
v -0.014418 0.083476 -0.040660
v -0.026443 0.071276 -0.040670
v -0.014351 0.083441 -0.079683
v -0.026375 0.071242 -0.079693
v -0.014227 0.083378 -0.151180
v -0.026252 0.071179 -0.151190
v -0.013992 0.083258 -0.287666
v -0.026017 0.071058 -0.287676
v -0.018802 -0.080232 -0.146062
v -0.024976 -0.074031 -0.287546
v -0.018559 -0.080357 -0.287529
v -0.025220 -0.073906 -0.146079
v -0.018934 -0.080165 -0.069583
v -0.025352 -0.073839 -0.069600
v -0.018972 -0.080145 -0.047457
v -0.025390 -0.073819 -0.047473
v -0.019134 -0.080062 0.046325
v -0.025552 -0.073736 0.046309
v -0.019172 -0.080043 0.068451
v -0.025590 -0.073717 0.068435
v -0.019516 -0.079866 0.268050
v -0.025934 -0.073540 0.268033
v -0.019552 -0.079848 0.289002
v -0.025970 -0.073522 0.288985
v -0.025565 -0.024539 -0.151104
v -0.025330 -0.024660 -0.287590
v -0.024976 -0.074031 -0.287546
v -0.025220 -0.073906 -0.146079
v -0.025689 -0.024476 -0.079607
v -0.025352 -0.073839 -0.069600
v -0.025756 -0.024441 -0.040584
v -0.025390 -0.073819 -0.047473
v -0.025552 -0.073736 0.046309
v -0.026001 -0.024316 0.101263
v -0.025590 -0.073717 0.068435
v -0.026039 -0.024296 0.123389
v -0.025934 -0.073540 0.268033
v -0.026297 -0.024164 0.273213
v -0.025970 -0.073522 0.288985
v -0.026324 -0.024150 0.288941
v -0.014250 -0.018880 0.288957
v -0.026361 -0.018967 0.288936
v -0.023672 -0.021541 0.286237
v -0.014226 -0.021473 0.286253
v 0.036599 -0.018515 0.289044
v 0.036622 -0.021109 0.286341
v 0.037106 0.048839 -0.287547
v -0.013766 0.051068 -0.284931
v 0.037083 0.051433 -0.284844
v -0.013742 0.048474 -0.287635
v -0.023211 0.051000 -0.284947
v -0.025854 0.048388 -0.287655
v -0.024196 0.051505 0.286172
v -0.026821 0.048883 0.273148
v -0.026848 0.048897 0.288875
v -0.024169 0.051491 0.270702
v -0.026563 0.048751 0.123325
v -0.023915 0.051361 0.123327
v -0.023877 0.051341 0.101200
v -0.026524 0.048731 0.101198
v -0.023633 0.051216 -0.040648
v -0.026280 0.048606 -0.040650
v -0.023565 0.051181 -0.079671
v -0.026213 0.048571 -0.079673
v -0.023444 0.051119 -0.149815
v -0.026089 0.048508 -0.151170
v -0.023211 0.051000 -0.284947
v -0.025854 0.048388 -0.287655
v -0.025603 -0.019356 -0.151109
v -0.025367 -0.019477 -0.287595
v -0.022688 -0.022046 -0.284882
v -0.022920 -0.021927 -0.149750
v -0.025726 -0.019293 -0.079612
v -0.023041 -0.021865 -0.079605
v -0.023109 -0.021830 -0.040582
v -0.025793 -0.019258 -0.040589
v -0.023353 -0.021705 0.101266
v -0.026038 -0.019133 0.101259
v -0.023391 -0.021685 0.123392
v -0.026076 -0.019113 0.123385
v -0.023645 -0.021555 0.270766
v -0.026334 -0.018981 0.273208
v -0.023672 -0.021541 0.286237
v -0.026361 -0.018967 0.288936
v -0.013242 -0.021978 -0.284865
v 0.037607 -0.021613 -0.284778
v 0.037630 -0.024208 -0.287482
v -0.013219 -0.024573 -0.287569
v -0.022688 -0.022046 -0.284882
v -0.025330 -0.024660 -0.287590
v -0.026885 0.054080 0.288871
v -0.026858 0.054066 0.273143
v -0.024196 0.051505 0.286172
v -0.024169 0.051491 0.270702
v -0.026600 0.053934 0.123320
v -0.023915 0.051361 0.123327
v -0.026562 0.053914 0.101193
v -0.023877 0.051341 0.101200
v -0.026317 0.053789 -0.040655
v -0.023633 0.051216 -0.040648
v -0.026250 0.053754 -0.079677
v -0.023565 0.051181 -0.079671
v -0.023444 0.051119 -0.149815
v -0.026127 0.053691 -0.151174
v -0.023211 0.051000 -0.284947
v -0.025891 0.053570 -0.287660
v -0.025330 -0.024660 -0.287590
v -0.025565 -0.024539 -0.151104
v -0.022688 -0.022046 -0.284882
v -0.022920 -0.021927 -0.149750
v -0.025689 -0.024476 -0.079607
v -0.023041 -0.021865 -0.079605
v -0.025756 -0.024441 -0.040584
v -0.023109 -0.021830 -0.040582
v -0.026001 -0.024316 0.101263
v -0.023353 -0.021705 0.101266
v -0.026039 -0.024296 0.123389
v -0.023391 -0.021685 0.123392
v -0.023645 -0.021555 0.270766
v -0.026297 -0.024164 0.273213
v -0.023672 -0.021541 0.286237
v -0.026324 -0.024150 0.288941
v -0.013992 0.083258 -0.287666
v -0.014227 0.083378 -0.151180
v 0.036857 0.083622 -0.287578
v 0.036621 0.083743 -0.151093
v -0.014351 0.083441 -0.079683
v 0.036498 0.083806 -0.079596
v -0.014418 0.083476 -0.040660
v 0.036431 0.083841 -0.040573
v -0.014662 0.083601 0.101187
v 0.036186 0.083966 0.101275
v 0.036148 0.083986 0.123401
v -0.014700 0.083621 0.123314
v 0.035890 0.084118 0.273224
v -0.014959 0.083753 0.273137
v -0.014986 0.083767 0.288865
v 0.035863 0.084132 0.288952
v -0.014774 0.054167 0.288892
v -0.027011 0.071568 0.288855
v -0.026885 0.054080 0.288871
v -0.014986 0.083767 0.288865
v 0.035863 0.084132 0.288952
v 0.036075 0.054532 0.288979
v -0.013780 0.053657 -0.287639
v 0.036857 0.083622 -0.287578
v 0.037069 0.054022 -0.287552
v -0.013992 0.083258 -0.287666
v -0.026017 0.071058 -0.287676
v -0.025891 0.053570 -0.287660
v -0.013219 -0.024573 -0.287569
v 0.037630 -0.024208 -0.287482
v 0.038030 -0.079951 -0.287432
v -0.012819 -0.080316 -0.287519
v -0.024976 -0.074031 -0.287546
v -0.025330 -0.024660 -0.287590
v -0.018559 -0.080357 -0.287529
v -0.027011 0.071568 0.288855
v -0.026858 0.054066 0.273143
v -0.026885 0.054080 0.288871
v -0.026983 0.071554 0.273127
v -0.026725 0.071421 0.123304
v -0.026600 0.053934 0.123320
v -0.026687 0.071402 0.101178
v -0.026562 0.053914 0.101193
v -0.026443 0.071276 -0.040670
v -0.026317 0.053789 -0.040655
v -0.026375 0.071242 -0.079693
v -0.026250 0.053754 -0.079677
v -0.026127 0.053691 -0.151174
v -0.026252 0.071179 -0.151190
v -0.026017 0.071058 -0.287676
v -0.025891 0.053570 -0.287660
v 0.036636 -0.023698 0.289049
v -0.013813 -0.079807 0.289012
v 0.037036 -0.079442 0.289099
v -0.014212 -0.024063 0.288962
v -0.025970 -0.073522 0.288985
v -0.026324 -0.024150 0.288941
v -0.019552 -0.079848 0.289002
v -0.014736 0.048984 0.288896
v -0.024196 0.051505 0.286172
v -0.026848 0.048897 0.288875
v -0.014750 0.051573 0.286188
v 0.036098 0.051937 0.286275
v 0.036112 0.049349 0.288984
v 0.037607 -0.021613 -0.284778
v -0.013256 -0.019390 -0.287574
v 0.037593 -0.019025 -0.287486
v -0.013242 -0.021978 -0.284865
v -0.022688 -0.022046 -0.284882
v -0.025367 -0.019477 -0.287595
v -0.014212 -0.024063 0.288962
v -0.023672 -0.021541 0.286237
v -0.026324 -0.024150 0.288941
v -0.014226 -0.021473 0.286253
v 0.036622 -0.021109 0.286341
v 0.036636 -0.023698 0.289049
v 0.037083 0.051433 -0.284844
v -0.013766 0.051068 -0.284931
v -0.013780 0.053657 -0.287639
v 0.037069 0.054022 -0.287552
v -0.023211 0.051000 -0.284947
v -0.013766 0.051068 -0.284931
v -0.025891 0.053570 -0.287660
v -0.013063 -0.080191 -0.146052
v -0.012819 -0.080316 -0.287519
v 0.038030 -0.079951 -0.287432
v 0.037786 -0.079826 -0.145965
v -0.018559 -0.080357 -0.287529
v 0.037654 -0.079759 -0.069486
v -0.018802 -0.080232 -0.146062
v -0.013194 -0.080124 -0.069574
v -0.018934 -0.080165 -0.069583
v -0.013233 -0.080104 -0.047447
v -0.018972 -0.080145 -0.047457
v -0.013394 -0.080021 0.046335
v -0.019134 -0.080062 0.046325
v -0.013432 -0.080002 0.068461
v -0.019172 -0.080043 0.068451
v -0.013776 -0.079825 0.268060
v 0.037416 -0.079637 0.068549
v -0.019516 -0.079866 0.268050
v 0.037072 -0.079460 0.268147
v -0.019552 -0.079848 0.289002
v 0.037036 -0.079442 0.289099
v -0.013813 -0.079807 0.289012
vn -1.0000 -0.0072 -0.0017
vn -0.0017 0.0009 1.0000
vn 0.0017 -0.0009 -1.0000
vn 0.0040 -0.7215 0.6924
vn -0.7122 0.7020 -0.0018
vn -0.7020 -0.7122 -0.0006
vn 0.0040 -0.7217 0.6922
vn -0.0040 0.7217 -0.6922
vn -0.7021 0.7121 -0.0018
vn -0.6918 -0.7221 -0.0006
vn -0.0040 0.7215 -0.6924
vn -0.6917 -0.7222 -0.0006
vn -0.6919 -0.7220 -0.0006
vn -0.7022 0.7120 -0.0018
vn -0.0072 1.0000 -0.0009
vn -0.0064 0.7229 0.6909
vn 0.0064 -0.7229 -0.6909
vn -0.0064 0.7227 0.6911
vn 0.0064 -0.7227 -0.6911
vn 0.0072 -1.0000 0.0009
s 1
usemtl M_Metal_Brushed
f 1//1 2//1 3//1
f 2//1 1//1 4//1
f 5//1 6//1 7//1
f 5//1 7//1 8//1
f 9//2 10//2 11//2
f 11//2 10//2 12//2
f 13//3 14//3 15//3
f 15//3 14//3 16//3
f 17//4 18//4 19//4
f 18//4 17//4 20//4
f 20//4 21//4 22//4
f 20//4 22//4 23//4
f 24//1 25//1 26//1
f 26//1 27//1 24//1
f 28//1 29//1 30//1
f 29//1 28//1 31//1
f 32//2 33//2 34//2
f 34//2 33//2 35//2
f 34//2 35//2 36//2
f 36//2 35//2 37//2
f 38//1 39//1 40//1
f 40//1 41//1 38//1
f 41//1 40//1 42//1
f 43//1 41//1 42//1
f 44//1 43//1 42//1
f 43//1 44//1 45//1
f 46//3 47//3 48//3
f 47//3 46//3 49//3
f 47//3 49//3 50//3
f 50//3 49//3 51//3
f 52//5 53//5 54//5
f 53//5 55//5 54//5
f 53//5 56//5 55//5
f 57//5 55//5 56//5
f 58//5 57//5 56//5
f 57//5 58//5 59//5
f 58//5 60//5 59//5
f 61//5 59//5 60//5
f 60//5 62//5 61//5
f 63//5 61//5 62//5
f 62//5 64//5 63//5
f 65//5 63//5 64//5
f 64//5 66//5 65//5
f 67//5 65//5 66//5
f 68//6 69//6 70//6
f 69//6 68//6 71//6
f 72//6 71//6 68//6
f 71//6 72//6 73//6
f 72//6 74//6 73//6
f 75//6 73//6 74//6
f 74//6 76//6 75//6
f 77//6 75//6 76//6
f 78//6 77//6 76//6
f 77//6 78//6 79//6
f 78//6 80//6 79//6
f 81//6 79//6 80//6
f 80//6 82//6 81//6
f 83//6 81//6 82//6
f 84//1 85//1 86//1
f 84//1 86//1 87//1
f 88//1 84//1 87//1
f 87//1 89//1 88//1
f 89//1 90//1 88//1
f 90//1 89//1 91//1
f 92//1 90//1 91//1
f 93//1 90//1 92//1
f 93//1 92//1 94//1
f 94//1 95//1 93//1
f 94//1 96//1 95//1
f 97//1 95//1 96//1
f 98//1 97//1 96//1
f 97//1 98//1 99//1
f 100//7 101//7 102//7
f 102//7 103//7 100//7
f 104//7 100//7 103//7
f 103//7 105//7 104//7
f 106//8 107//8 108//8
f 107//8 106//8 109//8
f 109//8 110//8 107//8
f 109//8 111//8 110//8
f 112//9 113//9 114//9
f 112//9 115//9 113//9
f 115//9 116//9 113//9
f 115//9 117//9 116//9
f 118//9 116//9 117//9
f 116//9 118//9 119//9
f 118//9 120//9 119//9
f 121//9 119//9 120//9
f 120//9 122//9 121//9
f 123//9 121//9 122//9
f 124//9 123//9 122//9
f 123//9 124//9 125//9
f 124//9 126//9 125//9
f 127//9 125//9 126//9
f 128//10 129//10 130//10
f 130//10 131//10 128//10
f 132//10 128//10 131//10
f 132//10 131//10 133//10
f 133//10 134//10 132//10
f 135//10 132//10 134//10
f 136//10 135//10 134//10
f 135//10 136//10 137//10
f 138//10 137//10 136//10
f 137//10 138//10 139//10
f 138//10 140//10 139//10
f 141//10 139//10 140//10
f 142//10 141//10 140//10
f 143//10 141//10 142//10
f 144//11 145//11 146//11
f 146//11 147//11 144//11
f 148//11 144//11 147//11
f 147//11 149//11 148//11
f 150//12 151//12 152//13
f 152//13 151//12 153//12
f 151//12 154//13 153//12
f 155//13 153//12 154//13
f 156//12 155//13 154//13
f 155//13 156//12 157//13
f 156//12 158//12 157//13
f 159//12 157//13 158//12
f 158//12 160//12 159//12
f 161//12 159//12 160//12
f 160//12 162//13 161//12
f 160//12 163//13 162//13
f 163//13 164//12 162//13
f 163//13 165//12 164//12
f 166//14 167//14 168//14
f 169//14 168//14 167//14
f 170//14 169//14 167//14
f 169//14 170//14 171//14
f 170//14 172//14 171//14
f 173//14 171//14 172//14
f 174//14 173//14 172//14
f 173//14 174//14 175//14
f 176//14 175//14 174//14
f 175//14 176//14 177//14
f 178//14 177//14 176//14
f 176//14 179//14 178//14
f 180//14 178//14 179//14
f 179//14 181//14 180//14
f 182//15 183//15 184//15
f 185//15 184//15 183//15
f 185//15 183//15 186//15
f 187//15 185//15 186//15
f 187//15 186//15 188//15
f 189//15 187//15 188//15
f 190//15 189//15 188//15
f 189//15 190//15 191//15
f 190//15 192//15 191//15
f 192//15 190//15 193//15
f 193//15 194//15 192//15
f 194//15 193//15 195//15
f 196//15 194//15 195//15
f 194//15 196//15 197//15
f 198//2 199//2 200//2
f 198//2 201//2 199//2
f 201//2 198//2 202//2
f 202//2 198//2 203//2
f 204//3 205//3 206//3
f 205//3 204//3 207//3
f 207//3 204//3 208//3
f 208//3 204//3 209//3
f 210//3 211//3 212//3
f 210//3 212//3 213//3
f 214//3 210//3 213//3
f 210//3 214//3 215//3
f 214//3 213//3 216//3
f 217//1 218//1 219//1
f 220//1 218//1 217//1
f 220//1 221//1 218//1
f 222//1 218//1 221//1
f 223//1 222//1 221//1
f 222//1 223//1 224//1
f 223//1 225//1 224//1
f 226//1 224//1 225//1
f 225//1 227//1 226//1
f 228//1 226//1 227//1
f 227//1 229//1 228//1
f 227//1 230//1 229//1
f 230//1 231//1 229//1
f 232//1 229//1 231//1
f 233//2 234//2 235//2
f 233//2 236//2 234//2
f 236//2 237//2 234//2
f 238//2 237//2 236//2
f 234//2 237//2 239//2
f 240//16 241//16 242//16
f 241//16 240//16 243//16
f 244//16 243//16 240//16
f 240//16 245//16 244//16
f 246//17 247//17 248//17
f 247//17 246//17 249//17
f 250//17 247//17 249//17
f 247//17 250//17 251//17
f 252//18 253//18 254//18
f 253//18 252//18 255//18
f 252//18 256//18 255//18
f 256//18 252//18 257//18
f 258//19 259//19 260//19
f 260//19 261//19 258//19
f 262//19 260//19 263//19
f 260//19 262//19 264//19
f 265//20 266//20 267//20
f 265//20 267//20 268//20
f 266//20 265//20 269//20
f 270//20 265//20 268//20
f 271//20 269//20 265//20
f 265//20 270//20 272//20
f 265//20 272//20 271//20
f 273//20 271//20 272//20
f 272//20 274//20 273//20
f 275//20 273//20 274//20
f 274//20 276//20 275//20
f 277//20 275//20 276//20
f 278//20 277//20 276//20
f 277//20 278//20 279//20
f 278//20 280//20 279//20
f 281//20 280//20 278//20
f 282//20 279//20 280//20
f 280//20 281//20 283//20
f 284//20 282//20 280//20
f 285//20 280//20 283//20
f 284//20 280//20 286//20
f 280//20 285//20 286//20
