# Blender 4.0.2
# www.blender.org
mtllib SM_Steckdosenbox_06.mtl
o SM_Steckdosenbox_06
v -0.026256 -0.018859 0.258424
v -0.026785 0.049044 0.283849
v -0.026743 0.049004 0.258317
v -0.026298 -0.018819 0.283956
v -0.026094 0.048385 -0.137584
v -0.025856 0.048157 -0.283091
v -0.025369 -0.019706 -0.282984
v -0.025607 -0.019478 -0.137477
v -0.013402 -0.079991 0.072343
v 0.038047 -0.163282 0.072558
v 0.037446 -0.079626 0.072426
v -0.012802 -0.163647 0.072475
v 0.037673 -0.079842 -0.065611
v 0.038273 -0.163497 -0.065479
v -0.013176 -0.080207 -0.065694
v -0.012576 -0.163862 -0.065562
v 0.036138 0.054679 0.283943
v -0.014688 0.051719 0.281157
v 0.036161 0.052084 0.281240
v -0.014711 0.054314 0.283860
v -0.026822 0.054227 0.283841
v -0.024133 0.051651 0.281142
v -0.014688 0.051719 0.281157
v -0.025761 -0.019332 -0.043681
v -0.026248 0.048532 -0.043788
v -0.026205 0.048490 -0.070096
v -0.025718 -0.019373 -0.069989
v -0.026479 0.048752 0.096997
v -0.026028 -0.019077 0.119231
v -0.026515 0.048786 0.119124
v -0.025992 -0.019111 0.097103
v -0.026785 0.049044 0.283849
v -0.026298 -0.018819 0.283956
v -0.014674 0.049131 0.283869
v -0.014187 -0.018732 0.283975
v 0.036175 0.049496 0.283951
v 0.036662 -0.018367 0.284058
v -0.013176 -0.080207 -0.065694
v -0.012576 -0.163862 -0.065562
v -0.012612 -0.163828 -0.043434
v -0.013212 -0.080172 -0.043566
v -0.012766 -0.163681 0.050347
v -0.013366 -0.080025 0.050215
v -0.012802 -0.163647 0.072475
v -0.013402 -0.079991 0.072343
v 0.037591 -0.019254 -0.282881
v -0.013744 0.048244 -0.283071
v 0.037105 0.048609 -0.282988
v -0.013257 -0.019619 -0.282964
v -0.025856 0.048157 -0.283091
v -0.025369 -0.019706 -0.282984
v -0.014923 0.083914 0.283814
v -0.014881 0.083874 0.258282
v -0.026948 0.071715 0.283813
v -0.026906 0.071675 0.258281
v -0.014653 0.083656 0.119089
v -0.026678 0.071458 0.119089
v -0.014617 0.083622 0.096962
v -0.026642 0.071423 0.096962
v -0.014386 0.083402 -0.043823
v -0.026411 0.071203 -0.043824
v -0.014343 0.083360 -0.070131
v -0.026368 0.071162 -0.070132
v -0.014232 0.083255 -0.137619
v -0.026257 0.071056 -0.137620
v -0.013994 0.083027 -0.283126
v -0.026018 0.070829 -0.283126
v -0.018798 -0.080360 -0.137371
v -0.024977 -0.074260 -0.282898
v -0.018560 -0.080587 -0.282877
v -0.025216 -0.074033 -0.137391
v -0.018916 -0.080248 -0.065703
v -0.025333 -0.073921 -0.065723
v -0.018952 -0.080213 -0.043575
v -0.025370 -0.073886 -0.043595
v -0.019106 -0.080067 0.050206
v -0.025523 -0.073740 0.050185
v -0.019142 -0.080032 0.072334
v -0.025560 -0.073705 0.072313
v -0.019435 -0.079752 0.251244
v -0.025853 -0.073425 0.251224
v -0.019489 -0.079701 0.284062
v -0.025907 -0.073374 0.284042
v -0.025570 -0.024662 -0.137469
v -0.025332 -0.024890 -0.282976
v -0.024977 -0.074260 -0.282898
v -0.025216 -0.074033 -0.137391
v -0.025681 -0.024557 -0.069981
v -0.025333 -0.073921 -0.065723
v -0.025724 -0.024516 -0.043673
v -0.025370 -0.073886 -0.043595
v -0.025523 -0.073740 0.050185
v -0.025955 -0.024295 0.097111
v -0.025560 -0.073705 0.072313
v -0.025991 -0.024261 0.119239
v -0.025853 -0.073425 0.251224
v -0.026219 -0.024043 0.258432
v -0.025907 -0.073374 0.284042
v -0.026261 -0.024003 0.283964
v -0.014187 -0.018732 0.283975
v -0.026298 -0.018819 0.283956
v -0.023609 -0.021396 0.281257
v -0.014164 -0.021328 0.281273
v 0.036662 -0.018367 0.284058
v 0.036685 -0.020964 0.281355
v 0.037105 0.048609 -0.282988
v -0.013767 0.050840 -0.280369
v 0.037081 0.051205 -0.280286
v -0.013744 0.048244 -0.283071
v -0.023213 0.050773 -0.280384
v -0.025856 0.048157 -0.283091
v -0.024133 0.051651 0.281142
v -0.026743 0.049004 0.258317
v -0.026785 0.049044 0.283849
v -0.024092 0.051611 0.256029
v -0.026515 0.048786 0.119124
v -0.023868 0.051397 0.119124
v -0.023832 0.051363 0.096998
v -0.026479 0.048752 0.096997
v -0.023601 0.051143 -0.043788
v -0.026248 0.048532 -0.043788
v -0.023558 0.051101 -0.070096
v -0.026205 0.048490 -0.070096
v -0.023448 0.050997 -0.136691
v -0.026094 0.048385 -0.137584
v -0.023213 0.050773 -0.280384
v -0.025856 0.048157 -0.283091
v -0.025607 -0.019478 -0.137477
v -0.025369 -0.019706 -0.282984
v -0.022689 -0.022274 -0.280269
v -0.022924 -0.022050 -0.136576
v -0.025718 -0.019373 -0.069989
v -0.023033 -0.021946 -0.069981
v -0.023077 -0.021904 -0.043673
v -0.025761 -0.019332 -0.043681
v -0.023307 -0.021684 0.097112
v -0.025992 -0.019111 0.097103
v -0.023344 -0.021650 0.119240
v -0.026028 -0.019077 0.119231
v -0.023568 -0.021436 0.256144
v -0.026256 -0.018859 0.258424
v -0.023609 -0.021396 0.281257
v -0.026298 -0.018819 0.283956
v -0.013243 -0.022207 -0.280254
v 0.037606 -0.021842 -0.280171
v 0.037629 -0.024438 -0.282873
v -0.013220 -0.024803 -0.282956
v -0.022689 -0.022274 -0.280269
v -0.025332 -0.024890 -0.282976
v -0.026822 0.054227 0.283841
v -0.026781 0.054187 0.258309
v -0.024133 0.051651 0.281142
v -0.024092 0.051611 0.256029
v -0.026552 0.053969 0.119116
v -0.023868 0.051397 0.119124
v -0.026516 0.053935 0.096989
v -0.023832 0.051363 0.096998
v -0.026285 0.053714 -0.043797
v -0.023601 0.051143 -0.043788
v -0.026242 0.053673 -0.070104
v -0.023558 0.051101 -0.070096
v -0.023448 0.050997 -0.136691
v -0.026132 0.053568 -0.137592
v -0.023213 0.050773 -0.280384
v -0.025893 0.053340 -0.283099
v -0.025332 -0.024890 -0.282976
v -0.025570 -0.024662 -0.137469
v -0.022689 -0.022274 -0.280269
v -0.022924 -0.022050 -0.136576
v -0.025681 -0.024557 -0.069981
v -0.023033 -0.021946 -0.069981
v -0.025724 -0.024516 -0.043673
v -0.023077 -0.021904 -0.043673
v -0.025955 -0.024295 0.097111
v -0.023307 -0.021684 0.097112
v -0.025991 -0.024261 0.119239
v -0.023344 -0.021650 0.119240
v -0.023568 -0.021436 0.256144
v -0.026219 -0.024043 0.258432
v -0.023609 -0.021396 0.281257
v -0.026261 -0.024003 0.283964
v -0.013994 0.083027 -0.283126
v -0.014232 0.083255 -0.137619
v 0.036855 0.083392 -0.283043
v 0.036616 0.083620 -0.137536
v -0.014343 0.083360 -0.070131
v 0.036506 0.083725 -0.070049
v -0.014386 0.083402 -0.043823
v 0.036463 0.083767 -0.043741
v 0.036232 0.083987 0.097044
v -0.014617 0.083622 0.096962
v 0.036196 0.084021 0.119172
v -0.014653 0.083656 0.119089
v -0.014881 0.083874 0.258282
v 0.035967 0.084239 0.258365
v -0.014923 0.083914 0.283814
v 0.035925 0.084279 0.283897
v -0.014711 0.054314 0.283860
v -0.026948 0.071715 0.283813
v -0.026822 0.054227 0.283841
v -0.014923 0.083914 0.283814
v 0.035925 0.084279 0.283897
v 0.036138 0.054679 0.283943
v -0.013781 0.053427 -0.283079
v 0.036855 0.083392 -0.283043
v 0.037067 0.053792 -0.282996
v -0.013994 0.083027 -0.283126
v -0.026018 0.070829 -0.283126
v -0.025893 0.053340 -0.283099
v -0.013220 -0.024803 -0.282956
v 0.037629 -0.024438 -0.282873
v 0.038029 -0.080181 -0.282785
v -0.012820 -0.080546 -0.282868
v -0.024977 -0.074260 -0.282898
v -0.025332 -0.024890 -0.282976
v -0.018560 -0.080587 -0.282877
v -0.026948 0.071715 0.283813
v -0.026781 0.054187 0.258309
v -0.026822 0.054227 0.283841
v -0.026906 0.071675 0.258281
v -0.026678 0.071458 0.119089
v -0.026552 0.053969 0.119116
v -0.026642 0.071423 0.096962
v -0.026516 0.053935 0.096989
v -0.026411 0.071203 -0.043824
v -0.026285 0.053714 -0.043797
v -0.026368 0.071162 -0.070132
v -0.026242 0.053673 -0.070104
v -0.026132 0.053568 -0.137592
v -0.026257 0.071056 -0.137620
v -0.026018 0.070829 -0.283126
v -0.025893 0.053340 -0.283099
v 0.036699 -0.023551 0.284066
v -0.013749 -0.079660 0.284071
v 0.037099 -0.079295 0.284154
v -0.014149 -0.023916 0.283984
v -0.025907 -0.073374 0.284042
v -0.026261 -0.024003 0.283964
v -0.019489 -0.079701 0.284062
v -0.014674 0.049131 0.283869
v -0.024133 0.051651 0.281142
v -0.026785 0.049044 0.283849
v -0.014688 0.051719 0.281157
v 0.036161 0.052084 0.281240
v 0.036175 0.049496 0.283951
v 0.037606 -0.021842 -0.280171
v -0.013257 -0.019619 -0.282964
v 0.037591 -0.019254 -0.282881
v -0.013243 -0.022207 -0.280254
v -0.022689 -0.022274 -0.280269
v -0.025369 -0.019706 -0.282984
v -0.014149 -0.023916 0.283984
v -0.023609 -0.021396 0.281257
v -0.026261 -0.024003 0.283964
v -0.014164 -0.021328 0.281273
v 0.036685 -0.020964 0.281355
v 0.036699 -0.023551 0.284066
v 0.037081 0.051205 -0.280286
v -0.013767 0.050840 -0.280369
v -0.013781 0.053427 -0.283079
v 0.037067 0.053792 -0.282996
v -0.023213 0.050773 -0.280384
v -0.013767 0.050840 -0.280369
v -0.025893 0.053340 -0.283099
v 0.037153 -0.079346 0.251336
v -0.013402 -0.079991 0.072343
v 0.037446 -0.079626 0.072426
v -0.013696 -0.079711 0.251254
v 0.037099 -0.079295 0.284154
v -0.013749 -0.079660 0.284071
v -0.019489 -0.079701 0.284062
v -0.019435 -0.079752 0.251244
v -0.019142 -0.080032 0.072334
v -0.019106 -0.080067 0.050206
v -0.013366 -0.080025 0.050215
v -0.018952 -0.080213 -0.043575
v -0.013212 -0.080172 -0.043566
v -0.018916 -0.080248 -0.065703
v -0.013176 -0.080207 -0.065694
v -0.018798 -0.080360 -0.137371
v -0.013059 -0.080319 -0.137361
v -0.018560 -0.080587 -0.282877
v 0.037673 -0.079842 -0.065611
v -0.012820 -0.080546 -0.282868
v 0.037790 -0.079954 -0.137279
v 0.038029 -0.080181 -0.282785
vn -1.0000 -0.0072 -0.0016
vn -0.0016 0.0016 1.0000
vn 0.0016 -0.0016 -1.0000
vn 0.0040 -0.7213 0.6926
vn 0.0040 -0.7211 0.6928
vn 0.0040 -0.7210 0.6929
vn 0.0041 -0.7213 0.6926
vn -0.7122 0.7020 -0.0023
vn -0.7021 -0.7121 -0.0000
vn 0.0040 -0.7212 0.6927
vn -0.0040 0.7211 -0.6929
vn -0.7022 0.7120 -0.0023
vn -0.6919 -0.7220 -0.0000
vn -0.6917 -0.7222 -0.0000
vn -0.6916 -0.7223 -0.0000
vn -0.6918 -0.7221 -0.0000
vn -0.7020 0.7122 -0.0023
vn -0.0072 1.0000 -0.0016
vn -0.0063 0.7233 0.6905
vn 0.0063 -0.7232 -0.6906
vn 0.0063 -0.7233 -0.6905
vn 0.0063 -0.7234 -0.6905
vn 0.0063 -0.7230 -0.6908
vn 0.0072 -1.0000 0.0016
s 1
usemtl M_Metal_Brushed
f 1//1 2//1 3//1
f 2//1 1//1 4//1
f 5//1 6//1 7//1
f 5//1 7//1 8//1
f 9//2 10//2 11//2
f 10//2 9//2 12//2
f 13//3 14//3 15//3
f 15//3 14//3 16//3
f 17//4 18//5 19//6
f 18//5 17//4 20//7
f 20//7 21//4 22//4
f 20//7 22//4 23//7
f 24//1 25//1 26//1
f 26//1 27//1 24//1
f 28//1 29//1 30//1
f 29//1 28//1 31//1
f 32//2 33//2 34//2
f 34//2 33//2 35//2
f 34//2 35//2 36//2
f 36//2 35//2 37//2
f 38//1 39//1 40//1
f 40//1 41//1 38//1
f 41//1 40//1 42//1
f 43//1 41//1 42//1
f 44//1 43//1 42//1
f 43//1 44//1 45//1
f 46//3 47//3 48//3
f 47//3 46//3 49//3
f 47//3 49//3 50//3
f 50//3 49//3 51//3
f 52//8 53//8 54//8
f 55//8 54//8 53//8
f 53//8 56//8 55//8
f 57//8 55//8 56//8
f 58//8 57//8 56//8
f 57//8 58//8 59//8
f 58//8 60//8 59//8
f 61//8 59//8 60//8
f 60//8 62//8 61//8
f 63//8 61//8 62//8
f 62//8 64//8 63//8
f 65//8 63//8 64//8
f 64//8 66//8 65//8
f 67//8 65//8 66//8
f 68//9 69//9 70//9
f 69//9 68//9 71//9
f 72//9 71//9 68//9
f 71//9 72//9 73//9
f 72//9 74//9 73//9
f 75//9 73//9 74//9
f 74//9 76//9 75//9
f 77//9 75//9 76//9
f 78//9 77//9 76//9
f 77//9 78//9 79//9
f 78//9 80//9 79//9
f 81//9 79//9 80//9
f 80//9 82//9 81//9
f 83//9 81//9 82//9
f 84//1 85//1 86//1
f 84//1 86//1 87//1
f 87//1 88//1 84//1
f 88//1 87//1 89//1
f 89//1 90//1 88//1
f 90//1 89//1 91//1
f 92//1 90//1 91//1
f 93//1 90//1 92//1
f 94//1 93//1 92//1
f 94//1 95//1 93//1
f 94//1 96//1 95//1
f 97//1 95//1 96//1
f 98//1 97//1 96//1
f 97//1 98//1 99//1
f 100//10 101//10 102//10
f 102//10 103//10 100//10
f 104//10 100//10 103//10
f 103//10 105//10 104//10
f 106//11 107//11 108//11
f 107//11 106//11 109//11
f 109//11 110//11 107//11
f 109//11 111//11 110//11
f 112//12 113//12 114//12
f 112//12 115//12 113//12
f 115//12 116//12 113//12
f 115//12 117//12 116//12
f 118//12 116//12 117//12
f 116//12 118//12 119//12
f 118//12 120//12 119//12
f 121//12 119//12 120//12
f 120//12 122//12 121//12
f 123//12 121//12 122//12
f 124//12 123//12 122//12
f 123//12 124//12 125//12
f 124//12 126//12 125//12
f 127//12 125//12 126//12
f 128//13 129//13 130//14
f 130//14 131//14 128//13
f 132//14 128//13 131//14
f 132//14 131//14 133//13
f 133//13 134//13 132//14
f 135//13 132//14 134//13
f 136//13 135//13 134//13
f 135//13 136//13 137//13
f 138//13 137//13 136//13
f 137//13 138//13 139//13
f 138//13 140//13 139//13
f 141//13 139//13 140//13
f 142//14 141//13 140//13
f 143//15 141//13 142//14
f 144//11 145//11 146//11
f 146//11 147//11 144//11
f 148//11 144//11 147//11
f 147//11 149//11 148//11
f 150//16 151//16 152//16
f 152//16 151//16 153//16
f 151//16 154//16 153//16
f 155//16 153//16 154//16
f 156//16 155//16 154//16
f 155//16 156//16 157//16
f 156//16 158//16 157//16
f 159//16 157//16 158//16
f 158//16 160//16 159//16
f 161//16 159//16 160//16
f 160//16 162//16 161//16
f 160//16 163//16 162//16
f 163//16 164//16 162//16
f 163//16 165//16 164//16
f 166//12 167//12 168//12
f 169//12 168//12 167//12
f 170//12 169//12 167//12
f 169//12 170//12 171//12
f 170//12 172//12 171//12
f 173//12 171//12 172//12
f 174//12 173//12 172//12
f 173//12 174//12 175//12
f 176//12 175//12 174//12
f 175//12 176//12 177//12
f 178//12 177//12 176//12
f 176//12 179//12 178//12
f 180//12 178//12 179//12
f 179//12 181//17 180//12
f 182//18 183//18 184//18
f 185//18 184//18 183//18
f 185//18 183//18 186//18
f 187//18 185//18 186//18
f 187//18 186//18 188//18
f 188//18 189//18 187//18
f 188//18 190//18 189//18
f 190//18 188//18 191//18
f 191//18 192//18 190//18
f 192//18 191//18 193//18
f 194//18 192//18 193//18
f 192//18 194//18 195//18
f 196//18 195//18 194//18
f 195//18 196//18 197//18
f 198//2 199//2 200//2
f 198//2 201//2 199//2
f 201//2 198//2 202//2
f 202//2 198//2 203//2
f 204//3 205//3 206//3
f 205//3 204//3 207//3
f 207//3 204//3 208//3
f 208//3 204//3 209//3
f 210//3 211//3 212//3
f 210//3 212//3 213//3
f 214//3 210//3 213//3
f 210//3 214//3 215//3
f 214//3 213//3 216//3
f 217//1 218//1 219//1
f 218//1 217//1 220//1
f 220//1 221//1 218//1
f 222//1 218//1 221//1
f 223//1 222//1 221//1
f 222//1 223//1 224//1
f 223//1 225//1 224//1
f 226//1 224//1 225//1
f 225//1 227//1 226//1
f 227//1 228//1 226//1
f 227//1 229//1 228//1
f 227//1 230//1 229//1
f 230//1 231//1 229//1
f 232//1 229//1 231//1
f 233//2 234//2 235//2
f 233//2 236//2 234//2
f 236//2 237//2 234//2
f 238//2 237//2 236//2
f 234//2 237//2 239//2
f 240//19 241//19 242//19
f 241//19 240//19 243//19
f 244//19 243//19 240//19
f 240//19 245//19 244//19
f 246//20 247//20 248//20
f 247//20 246//20 249//20
f 250//20 247//20 249//20
f 247//20 250//20 251//20
f 252//19 253//19 254//19
f 253//19 252//19 255//19
f 252//19 256//19 255//19
f 256//19 252//19 257//19
f 258//21 259//21 260//21
f 260//21 261//21 258//21
f 262//22 260//21 263//21
f 260//21 262//22 264//23
f 265//24 266//24 267//24
f 266//24 265//24 268//24
f 269//24 268//24 265//24
f 268//24 269//24 270//24
f 271//24 268//24 270//24
f 271//24 272//24 268//24
f 272//24 273//24 268//24
f 266//24 268//24 273//24
f 274//24 266//24 273//24
f 266//24 274//24 275//24
f 274//24 276//24 275//24
f 277//24 275//24 276//24
f 276//24 278//24 277//24
f 279//24 277//24 278//24
f 278//24 280//24 279//24
f 281//24 279//24 280//24
f 280//24 282//24 281//24
f 281//24 283//24 279//24
f 284//24 281//24 282//24
f 283//24 281//24 285//24
f 281//24 284//24 286//24
f 281//24 286//24 285//24
